<svg xmlns="http://www.w3.org/2000/svg" xml:space="preserve" width="320" height="221" overflow="hidden"><path fill="#00A051" d="M293.546 32.721v156.028L320 220.8V1.2l-26.454 31.521Z"/><path fill="#F39800" d="m208.066 48.232 85.48-15.511L320 1.2 182.582 27.115l25.484 21.117Z"/><path fill="#EA5504" d="M208.066 68.8V48.232l-25.484-21.117V68.8h25.484Z"/><path fill="#FFF" d="M0 78.035h19.738v27.403h.25l22.287-27.403h23.736l-27.384 31.261 29.493 35.869H42.974l-22.986-30.492h-.21v30.492H0ZM118.11 76.885c-27.164 0-46.792 9.705-46.792 34.98 0 25.274 22.816 34.439 42.554 34.439 9.64.129 19.261-.905 28.653-3.078v-34.43h-19.108v23.097a18.767 18.767 0 0 1-6.996 1.149c-14.432 0-24.735-7.995-24.735-21.158 0-15.67 13.162-21.727 29.182-21.727a50.124 50.124 0 0 1 21.657 5.447V80.613c-6.156-2.219-17.479-3.728-24.415-3.728ZM227.865 119.68c0 18.369-13.162 26.644-32.481 26.644-19.319 0-32.481-8.275-32.481-26.644V78.035h19.729v38.657c0 8.854 2.658 16.35 12.742 16.35 10.084 0 12.732-7.496 12.732-16.35V78.035h19.759Z"/><path fill="#004EA2" d="m293.546 188.749-85.48-14.981v-18.1h-25.484v39.227L320 220.8l-26.454-32.051Z"/></svg>