<svg xmlns="http://www.w3.org/2000/svg" id="_레이어_1" version="1.1" viewBox="0 0 936.4534097 936.4534097"><defs><style>.st0{fill:#004094}</style></defs><path d="M468.223 936.453C210.041 936.453 0 726.405 0 468.227 0 210.042 210.041 0 468.223 0c258.188 0 468.23 210.042 468.23 468.227 0 258.178-210.042 468.226-468.23 468.226" style="fill:#fff"/><path d="M468.223 936.453C210.041 936.453 0 726.405 0 468.227 0 210.042 210.041 0 468.223 0c258.188 0 468.23 210.042 468.23 468.227 0 258.178-210.042 468.226-468.23 468.226m0-926.309c-252.59 0-458.082 205.495-458.082 458.083s205.492 458.085 458.082 458.085 458.09-205.498 458.09-458.085-205.5-458.083-458.09-458.083" class="st0"/><path d="m793.388 738.31-38.357-38.338-31.822 31.815 6.717 6.692 24.577-24.578 31.64 31.633-4.874 4.87-16.195-16.188-6.997 6.983 16.2 16.201-3.455 3.45-16.201-16.18-6.984 6.983 16.188 16.194-4.466 4.478 6.535 6.503 37.296-37.316-6.508-6.509zM484.684 834.329v28.261h-30.748v-5.35h22.911v-22.097H444.07v8.63h22.957v4.79h-22.957v22.664h40.615v8.15h-24.096v-4.712h-9.854v26.458h43.824v-66.794zm0 58.326h-24.096v-4.973h24.096zM283.97 809.933l4.042-7.016-48.765-28.158-4.036 7.017 19.963 11.534-2.063 3.612-15.426-8.898-4.055 7.017 31.718 18.316-1.732 3.007-31.718-18.316-9.887 17.151 39.627 22.886 4.06-7.037-31.775-18.329 1.77-3.111 31.79 18.348 9.835-17.06-15.394-8.89 2.063-3.6z" class="st0"/><path d="M275.293 768.751c-7.745-4.477-17.378-2.284-21.512 4.863-4.133 7.192-1.204 16.598 6.529 21.075 7.746 4.479 17.379 2.304 21.512-4.868 4.133-7.18 1.21-16.598-6.529-21.07m-10.89 18.837c-3.416-1.972-4.685-6.216-2.818-9.444 1.875-3.241 6.184-4.263 9.608-2.298 3.423 1.992 4.699 6.23 2.825 9.47-1.875 3.242-6.178 4.258-9.614 2.272" class="st0"/><path d="M272.866 764.42 269 771.125l7.823 4.504 3.854-6.698zM202.485 718.835 191.433 729.9l-6.665-6.645-6.561 6.554 6.646 6.652-30.183 30.208 7.265 7.27 47.827-47.827z" class="st0"/><path d="M169.498 717.299 159.33 740.62l7.368 7.394 14.462-34.92.808-1.12L187.93 706l-7.16-7.16-5.969 5.975-1.125.78-34.908 14.464 7.375 7.38zM360.436 884.784l17.516-65.332 9.938 2.664-17.516 65.333zM348.635 834.648l2.91 25.795 10.297 2.746-5.018-38.2.117-1.42 2.226-8.305-9.985-2.675-2.226 8.312-.599 1.282-23.457 30.572 10.29 2.753zM686.466 780.507l-7.127-12.393-8.553 4.94 20.594 35.695-28.261 16.285 4.62 8.006 28.263-16.311 8.611 14.905 8.546-4.933-22.026-38.143 6.822-3.944-4.648-8.052z" class="st0"/><path d="m657.937 783.65-2.486-4.302-8.995 5.188 2.5 4.302-10.793 6.23 4.076 7.042 30.513-17.626-4.055-7.043z" class="st0"/><path d="M655.451 789.743c-7.875 4.536-10.844 14.124-6.651 21.401 4.217 7.296 14.006 9.516 21.876 4.973 7.869-4.544 10.85-14.137 6.639-21.414-4.198-7.277-13.988-9.49-21.864-4.96m10.987 19.032c-3.423 1.965-7.7.963-9.568-2.278-1.854-3.216-.599-7.433 2.825-9.412 3.41-1.98 7.694-.95 9.548 2.271 1.882 3.216.619 7.453-2.805 9.419M587.98 816.364l3.971 14.762-4.7 1.263-3.964-14.775-9.17 2.46 9.58 35.799-16.493 4.439-7.108-26.621 11.788-3.15-2.337-8.71-21.674 5.807 11.794 44.065 26.387-7.069 5.564 20.763 9.172-2.454-10.961-40.862 4.712-1.276 10.935 40.889 9.165-2.454-17.496-65.336zM860.065 582.74l-8.748-8.715-8.709 8.715 8.709 8.73zM93.865 582.74l-8.71-8.715-8.734 8.715 8.734 8.73zM41.533 407.518l25.801 2.412c5.897.553 11.723 1.347 15.738 6.323 3.412 4.186 4.193 10.333 3.685 15.693-.495 5.36-2.395 11.25-6.529 14.74-4.875 4.145-10.739 3.836-16.643 3.29l-25.801-2.415 1.12-11.93 24.16 2.26c5.956.56 12.51.746 13.227-6.925.722-7.67-5.754-8.702-11.716-9.262l-24.161-2.262zM49.598 364.97l3.482-11.476 33.352-12.813.038-.116-26.979-8.192 3.482-11.462 44.118 13.398-3.483 11.47-33.41 12.783-.032.123 27.018 8.208-3.476 11.465zM126.272 292.412l-5.318 10.74-41.305-20.445 5.311-10.736zM139.14 236.487l-16.44-25.28 7.51-10.635 26.322 42.649-5.357 7.599-48.836-10.73 7.499-10.642zM170.591 171.438l5.435 5.454 9.568-9.549 7.173 7.183-9.561 9.545 5.61 5.627 10.09-10.066 7.172 7.183-18.563 18.54-32.584-32.632 18.564-18.537 7.172 7.182zM262.712 142.64l-12.146 8.666-19.514-7.856-.098.071 10.304 14.437-9.756 6.96-26.791-37.526 14.58-10.414c7.42-5.292 15.57-5.773 21.29 2.232 3.691 5.185 4.004 11.723-.644 16.47zm-36.235-5.394.95-.673c3.19-2.275 6.34-5.432 3.423-9.51-2.916-4.084-6.925-2.122-10.101.153l-.95.677zM296.37 86.295c-2.774-.7-5.846-.582-8.488.687-1.986.953-4.075 3.384-2.956 5.698 1.159 2.421 4.53 1.952 6.698 1.657l3.157-.498c6.6-1.071 12.47-.3 15.7 6.424 1.991 4.133 3.039 8.859 1.08 13.252-1.927 4.319-5.715 7.57-9.907 9.58-5.233 2.523-11.208 3.223-16.878 2.289l.437-10.932c3.84 1.068 7.967 1.465 11.65-.315 2.54-1.22 4.635-3.786 3.23-6.705-1.46-3.027-6.204-2.033-8.833-1.585-7.713 1.332-13.018 1.712-16.891-6.33-4.048-8.425-.697-16.828 7.628-20.83 4.186-2.012 9.946-3.155 14.645-2.835zM358.522 99.707l-11.43 3.595-13.81-43.973 11.422-3.593zM409.5 88.283l-11.827 2.002-6.001-35.454-9.763 1.65-1.706-10.01 31.36-5.309 1.7 10.007-9.77 1.654zM443.483 38.168l14.359-.234 8.812 12.39 8.423-12.667 14.359-.234-16.598 24.23.352 22.116-11.977.202-.351-22.12zM619.6 88.098c-4.627 14.17-18.062 20.832-32.115 16.23-14.058-4.599-20.945-17.913-16.304-32.086 4.329-13.236 18.986-18.723 31.58-14.596 12.608 4.117 21.181 17.212 16.84 30.452m-36.592-11.911c-2.48 7.543 1.288 14.886 8.09 17.108 6.789 2.226 14.177-1.468 16.643-9.011 1.98-6.047-1.796-13.383-8.578-15.612-6.802-2.223-14.177 1.468-16.155 7.515M668.716 98.73l-3.697 6.77 11.54 6.29-4.861 8.911-11.534-6.3-8.67 15.887-10.519-5.73 22.079-40.473L686.29 96.76l-4.856 8.91zM770.36 178.33c-.274-2.85-1.407-5.698-3.49-7.758-1.562-1.552-4.549-2.708-6.359-.885-1.894 1.91-.325 4.927.678 6.866l1.529 2.806c3.215 5.86 4.452 11.647-.794 16.936-3.229 3.26-7.316 5.826-12.12 5.458-4.712-.368-9.047-2.851-12.34-6.125-4.128-4.088-6.783-9.474-7.798-15.136l10.44-3.236c.28 3.97 1.283 7.98 4.192 10.87 1.998 1.98 5.11 3.086 7.394.782 2.369-2.386-.156-6.523-1.458-8.85-3.834-6.808-5.975-11.68.312-18.02 6.574-6.635 15.609-6.293 22.17.206 3.293 3.277 6.294 8.311 7.576 12.845zM807.636 220.306l-6.223 4.53 7.948 10.916-8.202 5.975-7.947-10.915-6.424 4.667 8.383 11.514-8.201 5.968-15.44-21.19 37.251-27.122 15.433 21.197-8.195 5.968zM847.633 315.027c-13.448 6.44-27.559 1.34-33.963-12.012-6.406-13.347-1.537-27.552 11.923-33.996 12.576-6.027 26.687.768 32.421 12.737 5.741 11.97 2.194 27.24-10.381 33.27m-16.702-34.731c-7.172 3.433-9.874 11.24-6.783 17.694s10.87 9.236 18.044 5.803c5.74-2.75 8.435-10.561 5.35-17.008-3.098-6.454-10.87-9.24-16.611-6.49M890.728 383.133l-25.15 6.274c-5.754 1.439-11.508 2.617-16.943-.755-4.608-2.815-7.38-8.357-8.683-13.577s-1.458-11.42 1.276-16.074c3.228-5.526 8.865-7.189 14.606-8.625l25.157-6.267 2.896 11.627-23.542 5.868c-5.819 1.455-12.062 3.447-10.193 10.926 1.868 7.465 8.318 6.3 14.124 4.849l23.555-5.874zM861.66 438.979l1.08 14.33-10.128.764-1.972-26.283 45.985-3.456.892 11.954zM391.203 664.187v-10.103h18.499v45.882h-11.937v-35.78zM433.498 699.966l13.083-15.459-.117-.117c-2.07.911-4.023 1.4-6.45 1.4-9.015 0-14.73-7.727-14.73-16.188 0-11.26 9.256-17.347 19.715-17.347 4.446 0 9.556 1.094 13.09 3.958 3.71 2.98 6.144 7.85 6.144 12.653 0 6.633-3.41 13.031-7.368 18.264l-9.79 12.836zm4.199-30.729c0 4.205 3.17 7.544 7.361 7.544 4.198 0 7.609-3.34 7.609-7.544 0-4.205-3.41-7.544-7.609-7.544-4.192 0-7.361 3.34-7.361 7.544M477.089 664.187v-10.103h18.504v45.882h-11.937v-35.78zM546.076 665.338c0 4.863-3.046 9.015-7.25 10.415v.11c5.486 1.836 9.137 6.034 9.137 12.068 0 9.483-9.62 13.864-17.522 13.864-7.92 0-17.534-4.38-17.534-13.864 0-6.034 3.658-10.232 9.132-12.068v-.11c-4.199-1.4-7.245-5.552-7.245-10.415 0-8.754 7.785-13.083 15.647-13.083 7.837 0 15.635 4.329 15.635 13.083m-21.115 21.07c0 3.098 2.434 5.59 5.48 5.59 3.034 0 5.468-2.492 5.468-5.59 0-3.176-2.434-5.728-5.468-5.728-3.046 0-5.48 2.552-5.48 5.727m.43-20.698c0 2.864 2.24 5.174 5.05 5.174 2.786 0 5.039-2.31 5.039-5.174s-2.253-5.175-5.039-5.175c-2.81 0-5.05 2.31-5.05 5.175M620.043 295.425H591.17v158.163l-20.588-4.397V295.425h-37.641v145.747l-19.716-4.15V295.426h-47.67v131.463l-15.446-3.31V295.426h-58.97v115.618l-12.471-2.662V295.425h-66.502v98.854l6.19 1.311v164.298h28.86V401.774l20.601 4.345v153.769h37.615v-145.79l19.709 4.212v141.578h47.703v-131.45l15.453 3.303v128.147h58.964V444.232l12.458 2.707v112.949h66.52v-98.85l-6.196-1.329zM204.73 336.845v223.043h10.018V362.512c5.624 5.881 13.278 10.421 22.091 13.923v183.453h15.049v-178.62c2.55.648 5.102 1.308 7.732 1.8l15.048 3.303v173.517h21.388V390.852l5.364 1.107v-96.534h-30.572c-47.092 0-66.117 17.877-66.117 41.42M723.6 295.425V492.86c-5.598-5.891-13.213-10.421-22.04-13.982V295.425h-15.055v178.63a182 182 0 0 0-7.686-1.849l-15.12-3.185V295.425h-21.317v169.043l-5.39-1.136v96.556h30.527c47.156 0 66.156-17.9 66.156-41.396V295.425z" class="st0"/></svg>