<svg xmlns="http://www.w3.org/2000/svg" id="_레이어_1" version="1.1" viewBox="0 0 905.1098194 905.0969021"><defs><style>.st0{fill:#b60005}.st1{fill:#7d7d7d}.st2{fill:#fff}</style></defs><path d="M905.11 452.548c0 249.938-202.602 452.549-452.562 452.549C202.598 905.097 0 702.486 0 452.548 0 202.615 202.598 0 452.548 0 702.508 0 905.11 202.615 905.11 452.548" class="st2"/><path d="M890.573 452.548c0 242.038-196.165 438.242-438.203 438.242-242.02 0-438.233-196.204-438.233-438.242 0-242.003 196.212-438.207 438.233-438.207 242.038 0 438.203 196.204 438.203 438.207" class="st1"/><path d="m762.018 449.765-230.777-1.632 230.542-9.952-.157-3.858-230.62 9.939 229.78-21.497-.347-3.854-229.79 21.523 228.39-33.015-.571-3.802-228.41 32.99 226.444-44.417-.74-3.797-226.443 44.42 223.886-55.695-.922-3.754-223.817 55.674 220.72-66.827-1.127-3.71-220.81 66.857 217.16-77.819-1.313-3.654-217.122 77.827 212.911-88.597-1.487-3.567-212.938 88.597 208.192-99.163-1.662-3.493-208.226 99.168L725.723 305.18l-1.845-3.388-202.99 109.48L718.12 291.766l-2.014-3.332L518.823 408.02 709.82 278.716l-2.158-3.202-191.027 129.317L700.92 266.127l-2.34-3.105-184.268 138.68 177.03-147.724-2.445-2.953L511.84 398.719l169.391-156.368-2.636-2.862-169.382 156.424 161.305-164.698-2.77-2.696L506.364 393.29l152.901-172.646-2.906-2.553-152.905 172.632 144.031-180.066-3.027-2.419-144.006 180.05L635.22 201.236l-3.12-2.25-134.805 187.017L622.52 192.511l-3.246-2.097L494.06 383.921 609.39 184.385l-3.35-1.94L490.67 381.99l105.183-205.052-3.428-1.766-105.144 204.934 94.705-209.919-3.532-1.6-94.758 210.036 84.07-214.486-3.58-1.414-84.056 214.334 73.155-218.258-3.68-1.235-73.199 218.366 62.138-221.724-3.737-1.052-62.159 221.824 50.928-224.626-3.758-.87-50.954 224.635 39.583-226.862-3.784-.679-39.653 226.94 28.195-228.593-3.854-.5-28.182 228.602L477.85 143.34l-3.871-.27-16.686 229.637 5.129-230.141-3.876-.104-6.125 273.97-4.306-273.988-3.897.048 3.658 230.807-15.186-230.307-3.867.261 15.194 230.324-26.708-229.232-3.836.439 26.717 229.167-38.192-227.514-3.789.649 38.161 227.553-49.544-225.313-3.767.817 49.536 225.335-60.776-222.529-3.732 1.018 60.767 222.472-71.833-219.11-3.672 1.218 71.842 219.145-82.73-215.239-3.614 1.38 82.734 215.307-93.417-210.84-3.532 1.552 93.408 210.841L314.176 174.86l-3.45 1.727 103.87 205.821-114.075-200.332-3.327 1.914 114.048 200.393-123.957-194.377-3.263 2.092 124.023 194.434-133.588-187.94-3.162 2.22 133.566 187.964-142.818-180.997-3.023 2.406 142.853 181.05L250.12 217.617l-2.897 2.523 151.713 173.602-160.23-165.738-2.775 2.697 160.274 165.799-168.348-157.534-2.662 2.801 168.374 157.56-176.038-148.873-2.488 2.949L391.12 402.321 207.818 262.439l-2.345 3.08 183.302 139.877L198.71 274.914l-2.183 3.18 190.07 130.517-196.377-120.787-1.997 3.28 196.334 120.8-202.128-110.752-1.87 3.402 202.115 110.738-207.37-100.447-1.697 3.463 207.335 100.464-212.076-89.907-1.514 3.554 212.08 89.928-216.316-79.15-1.301 3.633 216.274 79.18-219.972-68.188-1.143 3.671 219.997 68.214-223.103-57.043-.983 3.736 223.224 57.092-225.752-45.804-.782 3.797 225.752 45.839-227.714-34.438-.61 3.837 227.754 34.429-229.136-22.968-.379 3.85 229.137 22.985-230.011-11.432-.157 3.859 230.02 11.453-230.263.113v3.889l277.223-.126-276.98 11.953.14 3.85 230.632-9.944-229.789 21.488.357 3.85 229.771-21.484-228.362 32.985.544 3.797 228.419-32.976-226.47 44.416.778 3.784 226.418-44.407-223.882 55.682.931 3.75 223.786-55.66-220.685 66.83 1.123 3.684 220.789-66.835-217.14 77.836 1.3 3.645 217.123-77.831-212.88 88.61 1.474 3.558 212.916-88.606-208.18 99.16 1.658 3.496 208.218-99.167-202.946 109.494 1.836 3.384L385.06 491.632 187.857 611.13l2 3.328 197.3-119.581-190.984 129.312 2.15 3.184 191.01-129.295-184.234 138.699 2.288 3.101L391.68 501.175 214.62 648.93l2.457 2.958L394.126 504.16 224.747 660.58l2.623 2.824 169.4-156.425-161.313 164.715 2.77 2.71 161.397-164.785-152.897 172.65 2.862 2.536 152.936-172.645-144.053 180.096 3.045 2.384L405.53 514.608 270.738 701.642l3.15 2.253 134.757-187.004-125.192 193.516 3.25 2.075L411.92 518.979 296.576 718.493l3.371 1.949 115.328-199.536-105.153 205.047 3.423 1.77 105.122-204.938-94.67 209.923 3.537 1.61 94.727-210.045-84.052 214.482 3.584 1.413 84.052-214.338-73.134 218.262 3.65 1.214 73.216-218.328-62.155 221.703 3.745 1.062 62.168-221.825-50.954 224.63 3.78.857 50.954-224.626-39.614 226.87 3.824.666 39.635-226.927-28.191 228.593 3.845.487 28.205-228.597-16.69 229.69 3.884.273 16.668-229.646-5.124 230.172 3.863.066 6.15-273.962 4.28 274.023 3.885-.061-3.64-230.838 15.207 230.316 3.853-.244-15.207-230.324 26.726 229.237 3.854-.448-26.713-229.176 38.144 227.523 3.81-.649-38.174-227.566 49.54 225.317 3.772-.813-49.553-225.348 60.793 222.53 3.741-1.018-60.759-222.469 71.825 219.12 3.662-1.201-71.833-219.167 82.72 215.235 3.633-1.392-82.742-215.287 93.434 210.85 3.532-1.566-93.443-210.842 103.891 205.83 3.45-1.713-103.87-205.852 114.053 200.35 3.35-1.928-114.045-200.37L618.7 712.898l3.245-2.079-123.996-194.464L631.53 704.34l3.154-2.258-133.58-187.965 142.806 180.992 3.053-2.37-142.848-181.036 151.748 173.615 2.888-2.545-151.696-173.62 160.179 165.76 2.792-2.701-160.252-165.799L678.13 663.92l2.662-2.801L512.39 503.568l176.047 148.869 2.479-2.941L514.86 500.579l183.315 139.87 2.332-3.054-183.29-139.9 190.054 130.496 2.183-3.189-190.062-130.504 196.36 120.79 2.01-3.296-196.338-120.808 202.115 110.772 1.879-3.388L523.29 487.604l207.392 100.455 1.683-3.471-207.353-100.464 212.125 89.915 1.496-3.58-212.107-89.906 216.326 79.14 1.331-3.632-216.296-79.15 219.959 68.176 1.157-3.702-220.015-68.21 223.116 57.079.983-3.763-223.203-57.096 225.73 45.813.801-3.789-225.782-45.834 227.761 34.429.561-3.832-227.731-34.42 229.14 22.971.401-3.889-229.193-22.98 230.02 11.453.19-3.871-276.884-13.78 277.085 1.974z" class="st2"/><path d="m418.302 156.798-12.423 5.499c-3.058 1.365-6.53 2.362-10.04 2.892l-3.349.51-4.393 12.11 5.833.156c-1.87 5.028-7.49 20.192-7.49 20.192-.031.03-.727 1.73-1.014 2.418-.696.122-5.229.8-5.229.8l-1.465 3.037-3.82 9.374h28.005l4.789-11.84s-3.81-.54-5.803-.8c1.819-4.903 16.4-44.348 16.4-44.348M451.396 166.307c-1.705-2.066-4.846-4.498-10.2-4.498h-.066c-9.748 0-19.352 8.778-21.397 19.596a18 18 0 0 0-.344 3.485c0 3.501 1.075 6.699 3.163 9.182 1.079 1.318 2.419 2.275 3.875 3.015-3.114 2.288-6.476 3.97-9.786 4.58l-4.298.796-1.07 12.332 6.29-.022c2.279-.03 6.55-.987 9.978-2.236 10.31-3.788 23.498-14.193 26.682-31.132.688-3.553 1.21-10.239-2.827-15.098m-12.806 10.249c-.035.643-.035 1.165-.244 2.21 0 .025-.879 2.579-1.5 4.436-.327.113-.596.248-.901.33v-.034c0-.383.035-.892.17-1.553.517-2.671 1.54-4.311 2.475-5.39" class="st2"/><path d="M480.47 178.765c1.218-.774 2.297-1.731 3.584-2.21.052-.026 10.231-3.07 10.231-3.07l.896-4.18.513-9.153-7.268 1.396-1.335.261-7.595 1.801c-14.86 4.781-25.403 16.538-28.213 31.454-.235 1.196-.288 2.31-.348 3.414-.018.061-.427.697-.427.697s.344-.157.375-.187c0 .187-.048.36-.048.517 0 4.063 1.144 7.63 3.388 10.314 2.54 3.044 6.255 4.737 10.492 4.737 10.17 0 19.765-8.879 21.897-20.183a19.6 19.6 0 0 0 .365-3.78c0-3.59-1.053-6.808-3.08-9.253-.935-1.144-2.174-1.905-3.427-2.575m-9.97 12.963c0 .409-.048.965-.174 1.722-.783 4.08-2.222 5.934-3.262 6.773 0-.718.06-1.666.27-2.832.426-2.231.991-3.889 1.505-5.124.608-.261 1.444-.678 1.661-.696zM524.595 166.068c-1.584-1.931-4.498-4.259-9.51-4.259h-.069c-15.303 0-24.537 21.306-26.607 31.641-1.066 5.015-1.519 12.058 2.353 16.843 1.574 1.94 4.497 4.263 9.439 4.263 15.329 0 24.663-21.628 26.76-32.085 1.018-4.854 1.435-11.701-2.366-16.403m-13.742 14.12c-1.378 5.276-3.797 11.292-6.263 15.659 1.387-5.285 3.823-11.353 6.263-15.66" class="st2"/><path d="m383.447 208.044.596-1.457c5.276-.557 5.742-.888 7.768-6.438l8.77-23.62c1.374-3.714 1.166-4.058-1.958-4.154l-2.444-.074.522-1.461a44.4 44.4 0 0 0 11.522-3.306l-12.07 32.615c-2.049 5.55-1.645 5.88 3.47 6.438l-.582 1.457zM439.93 169.56c5.92 0 4.558 7.578 4.045 10.293-.583 3.062-1.584 5.572-2.523 7.612-1.457 1.026-4.01 1.936-5.946 1.936-4.528 0-5.96-3.698-5.05-8.487 1.113-5.786 4.854-11.353 9.421-11.353zm1.2-2.026c-6.847 0-14.215 6.803-15.76 14.924-1.139 6.007 1.997 10.327 6.79 10.327.98 0 2.097-.266 3.437-.9l5.011-2.332c-5.655 10.013-14.763 16.255-22.915 17.76l-.157 1.723c1.192 0 4.75-.674 8.039-1.884 10.109-3.697 20.462-13.175 23.037-26.821 1.105-5.837-.083-12.797-7.416-12.797zM470.657 185.799c5.69 0 6.02 4.893 5.306 8.669-1.357 7.238-5.337 12.332-9.822 12.332-4.836 0-5.384-5.333-4.436-10.479.687-3.693 1.896-6.855 2.792-8.417 1.592-.978 4.011-2.105 6.108-2.105zm18.913-18.613c-2.201.44-5.176.891-8.313 1.914-11.592 3.715-21.727 13.154-24.363 27.056-1.383 7.342 1.692 12.65 7.82 12.65 7.022 0 14.573-6.5 16.278-15.508 1.122-5.899-1.348-10.731-7.151-10.731-1.114.026-2.453.47-3.81 1.053l-4.376 2.079-.044-.087c5.376-8.704 11.518-12.562 16.399-14.416 2.601-1.009 5.507-1.861 7.447-2.21zM514.355 169.56c4.263 0 3.593 5.699 2.732 9.575-1.262 6.094-8.317 27.665-16.147 27.665-3.997 0-3.506-5.563-2.6-9.887 1.373-6.412 8.242-27.352 15.972-27.352zm.661-2.026c-10.974 0-19.078 17.617-20.996 27.021-1.444 6.82-.814 14.25 6.18 14.25 10.945 0 19.175-17.756 21.141-27.465 1.335-6.468.766-13.806-6.255-13.806z" class="st1"/><path d="M113.23 319.447a10.785 10.785 0 0 1-11.374 10.123c-5.912-.335-10.431-5.411-10.11-11.34.344-5.938 5.408-10.444 11.332-10.131 5.933.357 10.461 5.428 10.153 11.348M817.752 317.873c.335 5.92-4.189 11.005-10.122 11.34-5.924.335-10.987-4.18-11.34-10.109-.344-5.912 4.172-11.005 10.118-11.34 5.902-.348 10.992 4.193 11.344 10.109M69.502 417.906c-7.748 2.066-23.638 8.791-24.155 21.545-.34 7.856 5.446 12.91 13.702 13.25 8.743.352 14.433-4.794 19.644-14.416 6.764-12.48 15.211-21.349 28.274-20.796 15.198.604 26.7 11.627 25.955 29.757-.304 7.917-3.214 14.763-4.371 17.573-5.103.296-11.362.922-20.801 1.801l-.892-5.168c8.487-2.236 19.2-5.915 19.63-16.22.332-7.786-5.58-12.214-12.84-12.515-7.047-.278-12.301 4.102-17.765 14.73-6.59 12.966-15.333 21.574-29.374 20.983-16.525-.688-28.33-13.185-27.56-31.894.195-4.958 1.348-9.63 2.705-13.08 1.374-3.527 2.584-5.893 3.528-7.573 3.662-.926 13.302-2.061 22.75-3.11zM117.128 520.053c2.388 12.463-9.757 21.985-31.64 26.16-20.706 3.967-31.729-.956-33.647-10.953-2.527-13.319 11.584-23.101 31.071-26.834 18.804-3.61 32.18.988 34.181 11.527zm5.576.631c-4.497-23.632-27.403-31.097-45.673-27.6-20.884 4.002-34.803 20.445-30.84 41.146 3.75 19.6 22.153 31.558 45.869 27.03 21.84-4.163 34.272-21.684 30.666-40.467zM101.856 648.774c-3.746 1.714-7.034 3.306-9.218 4.889-4.371-4.902-10.309-11.623-13.806-19.274-9.84-21.584-2.636-41.58 18.522-51.228 23.785-10.831 43.907.866 52.772 20.3 3.532 7.756 4.924 15.516 5.611 19.275-3.506 1.91-8.687 4.854-17.13 9.63l-2.4-3.68c11.405-8.734 11.561-17.412 8.199-24.829-5.246-11.483-20.005-15.363-38.466-6.937-16.355 7.45-28.796 20.922-21.758 36.364.836 1.857 1.919 3.389 3.406 4.11 1.396.714 3.402.666 6.477-.739l9.378-4.254c6.89-3.158 7.382-3.998 3.907-14.11l3.945-1.802 12.932 28.396-3.95 1.8c-3.166-4.2-3.715-4.645-10.204-1.66zM142.853 680.432c7.873-2.875 15.633-5.803 23.85-8.604l.17.218-14.642 20.574zm5.694 17.4a1058 1058 0 0 1-7.356 11.34c-2.97 4.484-4.097 4.845-8.73.204l-3.44 2.645 17.851 23.167 3.428-2.636c-2.758-4.85-3.393-6.812 2.627-15.93 6.499-9.804 14.729-21.705 22.863-33.589l12.636-18.465-4.902-3.72-59.162 19.306c-9.94 3.21-11.575 2.288-16.06-2.123l-3.436 2.618 14.541 18.861 3.42-2.636c-4.142-6.464-3.002-7.194 2.44-9.526 4.258-1.762 8.912-3.584 11.71-4.537zM205.456 718.215c4.637-5.733 6.36-7.835 6.603-11.162.156-3.393-1.314-5.607-4.358-8.69l2.748-3.355 14.807 12.08-1.714 63.534.148.121 12.671-15.55c6.447-7.9 9.592-12.732 11.428-15.53 2.253-3.662 1.426-6.863-3.763-11.696l2.727-3.384 20.505 16.716-2.749 3.371c-4.123-2.923-7.203-3.14-10.326-.065-2.602 2.458-6.703 6.512-13.146 14.411l-28.334 34.764-5.333-4.363 3.558-68.136-.183-.117-15.198 18.656c-6.446 7.913-9.387 12.42-11.323 15.469-2.383 3.762-1.466 6.859 3.571 11.561l-2.722 3.363-20.601-16.795 2.736-3.371c4.223 3.014 7.382 3.375 10.592.278 2.757-2.644 6.672-6.39 13.092-14.276zM303.166 827.613c-1.831 3.689-3.354 7.038-4.058 9.635-6.473-1.026-15.298-2.449-22.854-6.172-21.323-10.466-28.387-30.51-18.152-51.355 11.532-23.48 34.511-27.173 53.698-17.734 7.622 3.745 13.66 8.882 16.535 11.349-1.493 3.697-3.624 9.248-7.156 18.304l-4.18-1.331c3.27-13.968-2.075-20.819-9.383-24.402-11.331-5.547-25.19.774-34.155 19.008-7.925 16.116-9.013 34.438 6.186 41.915 1.853.914 3.653 1.427 5.254 1.027 1.549-.322 3.071-1.645 4.568-4.685l4.545-9.239c3.328-6.812 3.18-7.773-5.933-13.367l1.918-3.88 28.004 13.737-1.91 3.893c-5.128-1.24-5.806-1.214-8.955 5.193zM379.145 793.197c1.548-12.666.54-13.763-8.648-15.868l.618-5.22 38.153 4.659-.64 5.229c-9.335-.17-10.757.634-12.319 13.328l-3.584 29.53c-2.545 20.871 2.401 33.08 15.886 34.712 14.498 1.788 22.497-9.67 25.272-32.441l1.67-13.545c1.14-9.348 1.244-16.521 1.158-20.897-.048-4.894-2.828-7.06-11.119-8.63l.635-5.203 31.859 3.89-.627 5.228c-6.385-.387-9.648 1.183-10.926 6.046-.966 4.124-2.593 11.075-3.724 20.448l-1.71 14.107c-1.691 13.858-5.232 25.868-13.158 33.142-6.294 5.859-15.59 8.425-25.024 7.277-8.513-1.036-16.438-3.828-22.08-10.279-5.746-6.668-7.604-16.968-5.633-33.106zM478.643 815.573c-1.061-7.308-1.453-9.987-3.75-12.406-2.383-2.427-5.02-2.845-9.326-2.688l-.643-4.285 18.921-2.758 45.648 44.247.209-.04-2.897-19.856c-1.484-10.096-2.893-15.668-3.715-18.935-1.188-4.115-4.107-5.68-11.166-5.09l-.63-4.31 26.15-3.815.618 4.302c-4.924 1.066-7.16 3.193-7.003 7.547.03 3.584.235 9.352 1.713 19.444l6.451 44.386-6.807.991-47.796-48.692-.21.027 3.472 23.82c1.466 10.112 2.788 15.337 3.723 18.808 1.175 4.315 4.09 5.716 10.953 5.167l.618 4.298-26.282 3.837-.635-4.307c5.09-1.074 7.49-3.158 7.352-7.63-.07-3.793-.192-9.186-1.662-19.3zM559.594 793.358c-3.063-8.978-4.263-9.417-11.797-7.703l-1.392-4.111 29.914-10.122 1.387 4.089c-7.042 3.21-7.673 4.289-4.61 13.267l13.954 41.21c3.04 8.974 4.189 9.43 11.735 7.717l1.384 4.106-29.9 10.144-1.384-4.098c7.016-3.24 7.708-4.315 4.672-13.293zM650.331 819.479c-15.999-14.676-38.383-34.716-47.322-42.616-7.085-6.302-9.017-6.311-14.454-4.067l-2.158-3.853 26.826-15.007 2.144 3.884c-6.307 4.394-5.898 5.276-2.401 8.652 4.39 4.232 21.636 19.896 33.955 30.762l.27-.174c-2.628-15.442-5.69-31.245-8.056-41.524-1.632-7.507-2.74-8.725-10.275-5.228l-2.157-3.871 21.845-12.18 2.166 3.863c-5.202 3.814-6.294 5.276-4.793 16.538 1.244 8.7 5.807 37.356 10.148 61.637zM672.25 733.922c-6.25-7.112-7.6-7.155-13.737-2.658l-2.875-3.245 36.834-32.371a2056 2056 0 0 0 12.52 12.527l-2.932 3.315c-3.972-2.906-7.078-4.402-9.505-4.672-2.614-.365-5.615 1.114-9.835 4.842l-3.153 2.762c-2.741 2.4-2.893 2.949-.44 5.741l15.046 17.117 5.255-4.611c6.729-5.924 6.512-6.642 1.814-13.95l3.254-2.862 16.537 18.826-3.253 2.863c-6.834-5.834-7.482-6.09-14.215-.166l-5.272 4.602 13.25 15.086c3.61 4.114 5.575 5.715 7.898 5.11 1.932-.526 4.176-2.379 7.143-4.989 3.497-3.049 6.333-6.75 6.142-10.378-.074-2.706-1.183-6.89-3.271-12.076l3.871-2.066c2.788 4.133 8.8 14.185 10.187 17.074l-39.983 35.129-2.832-3.254c6.32-6.607 6.52-7.89.274-15.016zM725.096 673.703c-1.836-1.41-2.653-2.275-2.827-3.293-.104-.879.248-2.17 1.653-4.036 3.254-4.272 10.796-7.265 19.957-.335 4.354 3.297 7.281 7.307 7.747 12.227.265 3.07-.988 6.046-3.567 9.474l-1.614 2.135zm30.275 40.24c7.534 5.746 7.63 6.978 3.406 13.833l3.454 2.6 19.04-25.106-3.45-2.614c-5.312 5.741-6.582 6.033-14.133.308L750.43 692.89l1.322-1.705c2.036-2.68 3.971-3.036 7.464-2.266 6.49 1.387 13.485 3.101 19.427 3.623 8.16.614 12.801-.27 21.236-10.466.948-1.052 1.591-1.879 2.392-2.758l-2.962-2.844c-2.058 1.357-3.98 1.761-7.347 2.044-2.897.278-7.756-.139-15.146-.87-5.99-.513-14.346-2.266-17.748-2.954 1.801-7.781.436-15.654-7.742-21.866-5.316-4.01-11.058-4.959-16-3.332-4.75 1.527-9.077 5.32-14.484 12.423l-17.513 23.128 3.446 2.623c5.228-5.568 6.385-5.855 13.85-.187zM793.841 644.972c6.516 1.027 20.74 1.257 25.377-8.16 2.888-5.83.191-11.553-5.898-14.555-6.49-3.184-12.493-1.209-19.614 4.298-9.26 7.16-18.57 11.022-28.235 6.255-11.214-5.507-16.242-17.639-9.621-31.067 2.87-5.855 7.325-10.03 9.16-11.779 3.95 1.5 8.857 3.106 16.26 5.577l-1.066 4.206c-7.12-1.14-16.416-1.975-20.196 5.677-2.823 5.733.157 11.057 5.498 13.693 5.229 2.557 10.648 1.009 18.317-5.176 9.287-7.552 18.713-11.132 29.105-6.03 12.232 6.03 16.952 19.366 10.144 33.199-1.81 3.684-4.232 6.829-6.394 8.951-2.219 2.219-3.915 3.585-5.186 4.55-3.088-.522-10.7-2.892-18.173-5.224zM786.907 571.086c-9.021-2.889-10.091-2.166-13.197 4.91l-4.115-1.34 9.604-30.07 4.15 1.319c-1.618 7.59-1.122 8.712 7.895 11.614l41.45 13.254c9.03 2.897 10.078 2.235 13.188-4.838l4.12 1.293-9.618 30.079-4.123-1.297c1.587-7.582 1.144-8.76-7.926-11.653zM791.632 511.91l-.388 2.715c-1.1 7.725.022 10.461 1.596 12.201 1.675 1.723 4.803 3.44 10.423 5.72l-.583 4.193c-8.978-1.687-16.712-3.393-22.476-4.423l.361-2.44c2.758-1.27 3.202-2.21 3.585-5.03l5.872-41.6c.383-2.706-.14-3.96-2.07-5.908l.356-2.392c4.754.583 14.324 1.426 22.471 1.975l-.365 4.253c-6.403.357-10.092 1.114-12.154 2.506-2.157 1.423-3.323 4.733-4.132 10.31l-.53 3.905 52.806 7.447c9.405 1.314 10.34.414 12.41-8.625l4.303.609-4.811 33.924-4.263-.6c.426-8.778-.2-9.966-9.605-11.314zM836.365 437.002c-3.08.235-3.984.692-6.425 1.949-6.394 3.371-13.306 7.668-25.642 15.115-7.09 4.324-7.63 5.638-8.16 11.05l-4.315.32-2.07-29.343 4.314-.27c1.557 6.847 2.601 6.655 6.073 4.79 7.69-4.129 16.142-9.14 23.376-13.585-6.094-2.515-17.47-6.86-24.586-8.904-4.219-1.223-5.254-.953-5.642 6.825l-4.301.304-1.775-24.785 4.315-.3c1.248 6.485 2.793 8.051 9.987 11.418 6.747 3.154 12.84 6.05 23.237 9.926 4.106 1.566 4.854 1.792 9.344 1.47l13.084-.926c10.079-.726 10.83-1.614 10.979-10.853l4.315-.322 2.392 33.79-4.315.313c-1.396-8.717-2.27-9.552-12.362-8.83zM443.07 100.533c-3.823 1.592-3.923 2.214-7.308 2.214-3.41 0-1.61.322-4.523-.382-1.754-.414-2.319-.548-4.176-.984-2.762-.643-9.326-1.705-9.53-11.24-.24-10.174-.867-20.126.839-22.04 1.7-1.91.909-3.728 1.122-5.216.209-1.483 2.122-2.118 3.175-1.905 1.062.21 2.901.905 5.872.905 0 0 2.75-.774 4.446-.905 1.07-.083 3.402.627 6.368-1.9 0 0 5.085-3.907 5.298-6.887.214-2.957-.6-6.768-7.203-6.768-5.733 0-11.449-.365-14.842-.861-2.857-.409-5.076-.627-7.203-.84 0 0-4.61-1.744-8.269 1.919-2.753 2.736-2.21 4.502-1.266 6.02 1.48 2.453 6.664 4.454 6.351 5.724-.317 1.28-2.862 2.867-3.506 3.824-.626.961-1.905 2.544-1.261 4.137.635 1.592 0 3.497-1.584 5.076-1.6 1.6-1.6 5.085-1.6 6.703l.321 22.15s-2.544 15.994 23.524 16.302c0 0 12.64-.117 17.39-1.544 1.906-.574 2.476-2.275 3.755-3.61.909-.957.953-4.128.635-5.66-.635-2.966-3.845-5.48-6.825-4.232M501.615 75.091c-.431-11.649-2.262-25.855-2.701-27.335-.123-.495.365-7.872-2.754-8.277-3.397-.422-3.171.157-5.077.365 0 0-4.036-.273-3.819 4.172.21 4.454-1.279 8.821-1.279 12.219 0 1.783.727 21.483 1.18 28.783-3.041.165-6.904.217-9.314.234-.26-15.076-1.213-37.043-5.628-40.036-3.384-2.292-4.32-3.623-7.212-2.992-1.497.317-2.55.905-2.862 1.861 0 0-1.17 1.758-.044 6.047.914 3.506.357 34.929.678 41.606.318 6.677 0 21.845 1.584 22.81 1.592.936 3.501 1.388 5.724-.513 2.219-1.9 6.36-.36 8.26-2.227.827-.796 0-8.939-.308-12.436-.026-.296-.044-.922-.061-1.784.6-.278 1.379-.63 2.488-1.087 2.258-.914 5.024-.8 7.32-.422.301 6.46.605 13.389.745 13.772.209.639.409 5.937 6.142 5.937 7.003 0 8.06-1.896 9.334-8.26 1.27-6.36-2.044-22.824-2.396-32.437M281.421 118.05c6.125-3.845 7.421-11.849 7.117-18.012-.305-6.19-3.358-20.44-9.622-22.502-4.711-1.566-6.464-.318-7.055-.052-1.44.665-3.35 2.714-4.55 3.105-1.736.561-4.55 1.44-9.457 3.959-4.906 2.514-13.145 5.42-15.059 5.837-1.901.418-4.38.13-6.186.243-1.805.153-3.036 3.29-3.036 3.29s-2.497 7.437-.896 10.891c1.627 3.458 4.276 5.15 11.179 2.397 6.908-2.753 7.443-5.098 9.696-7.33 2.232-2.214 9.322-10.73 13.863-10.03 4.528.678 6.29 16.007 4.089 33.724-.07.056.395-.613 5.359-3.789 2.153-1.374 3.132-.817 4.558-1.73M341.606 66.526c-.735-.587-1.688-1.961-2.158-2.727-.53-.844-2.175-2.088-1.887-1.927-1.94-1.666-6.369.935-7.996 1.444-1.622.54-4.219 1.44-6.48 2.958-1.506 1.018-3.346 2.497-6.578 3.623-2.488.849-4.88 2.036-7.099 2.828a62 62 0 0 0-3.062 1.213c-1.314-2.162-2.658-4.25-3.489-5.237-.965-1.153-6.298-12.023-12.636-9.069-1.84.852-1.805 3.184-2.301 4.097 0 0-1.018 5.855 1.736 12.767 2.744 6.903 9.882 19.714 11.157 21.919 1.266 2.218 3.767 3.562 5.568 3.419 1.81-.14 3.536-.944 5.059-1.183 1.535-.248 3.018-1.575 3.754-3.493 1.252-3.215.73-3.445-.244-6.042-.874-2.332-3.88-8.804-4.446-10.044.557-.217 1.514-.557 3.193-1.127 3.636-1.235 7.791.331 10.736.61 2.931.27 9.621-2.515 10.722-3.293 1.84-1.318 2.701-3.228 4.337-4.576 4.55-3.798 2.862-5.564 2.114-6.16M315.241 105.766l-7.651 2.18c-1.053-1.78-2.627-2.137-2.627-2.137s-2.14-.069-3.437 2.184c-.478.818-6.263 3.876-8.216 6.447-.649.835-3.485 2.662-5.168 5.603-1.853 3.262-7.834 14.91 1.883 30.005 7.934 12.31 23.268 9.438 26.839 8.369 5.637-1.697 19.196-8.026 23.811-16.943 5.15-9.974 1.435-18.204-2.466-25.025-4.05-7.138-14.681-12.431-22.968-10.683m13.82 27.156c-2.245 7.739-11.57 11.784-18.722 11.67-7.76-.147-12.245-7.202-11.993-14.68.261-7.499 5.747-10.392 5.747-10.392 6.368-3.436 6.633-3.088 6.633-3.088 7.826-1.818 9.635.33 11.671 1.34 1.188.591 9.282 6.155 6.664 15.15M607.59 68.297c1.174 1.24 5.515 3.98 9.113.035 3.58-3.942 1.914-7.86 1.278-10.275-.639-2.396-5.276-5.977-9.974-5.707 0 0-5.298.922-4.393 5.668.778 4.102 2.81 9.035 3.976 10.279M581.264 127.75s5.699 1.335 8.243.883c1.945-.343 5.007-.718 6.451-.27 1.431.431 7.377-.783 11.405-5.91 4.041-5.138 7.213-17.448 1.514-27.844 0 0-3.367-5.298-5.994-7.682-2.627-2.401 3.993-.017 5.133.527 1.157.53 4.92 2.992 7.69.543 2.793-2.453 1.714-2.01 3.654-2.98 1.518-.778 1.975-2.5.488-5.385-1.096-2.148-2.867-4.375-6.038-6.102-3.175-1.71-11.44-5.573-14.242-7.1-2.792-1.535-12.022-6.302-12.022-6.302s-7.408-4.185-9.814 1.492c-2.405 5.667-3.262 9.004 1.2 12.958 4.42 3.91 6.77 5.02 8.109 5.88 0 0-7.852.083-16.842 7.356-6.055 4.885-11.44 15.49-6.908 24.851 4.385 9.065 11.845 12.702 17.973 15.085m-1.748-28.344c4.132-8.36 12.214-5.132 12.214-5.132 10.04 3.58 11.075 11.749 9.796 16.099-1.557 5.354-4.089 6.437-5.229 6.376-1.14-.056-3.623-.748-5.332-.608-1.701.147-1.658 1.409-3.946.796-2.3-.6-4.571-1.732-6.259-4.611-1.697-2.919-4.524-6.247-1.244-12.92M660.475 125.928c-3.462-5.12-7.856-6.234-15.76-10.844-5.998-3.51-8.434-6.96-9.387-8.822 2.158-4.758 4.042-8.926 4.772-10.875 2.032-5.35 6.917-13.84 5.577-21.492-1.227-6.977-5.529-3.954-5.62-3.854-1.01 1.17-2.775 3.45-4.076 4.25-1.314.796-3.797 2.766-3.945 4.088 0 0-10.71 23.664-15.773 36.54-6.377 16.19-7.525 19.643-4.55 20.783 1.984.774 4.507.86 7.212-.444 2.732-1.296 5.594-2.466 7.043-7.395.587-2.01 2.875-7.246 5.467-13.01 3.01 1.792 3.363 2.275 5.011 6.416 1.784 4.507 4.664 9.287 11.188 12.606 7.578 3.897 10.8 1.905 11.919.509.774-.927 3.836-4.137.922-8.456M625.833 149.543s-1.7-.635-3.584-1.357c-2.158-.861-4.785-2.236-6.055-3.537-1.27-1.292-10.762-6.02-18.152-9.243-8.952-3.88-16.778-5.45-22.167-6.594-5.529-1.166-6.329 1.505-6.868 2.192 0 0-3.202 4.341 3.893 7.186 5.546 2.232 7.917-.418 15.402 3.08 7.5 3.484 19.497 6.346 23.638 8.973 4.15 2.65 5.028 4.294 3.331 8.408-1.687 4.12-5.82 12.489-5.82 12.489s-1.505 4.75 2.115 5.959c3.662 1.236 5.811.561 8.177-.452 3.236-1.38 6.481-9.383 7.378-11.297.895-1.931 5.337-9.926-1.288-15.807M161.67 195.569s-3.153 1.944-4.045-.744c0 0-2.71-9.291-8.247-13.033 0 0-4.085-4.08-8.07-3.497-2.51.383-2.361 1.697-2.361 2.062 0 1.192.382.983 1.061 2.975 1.131 3.35 1.562 4.49.687 18.54-.796 12.48-.347 10.9-.844 14.902-.382 2.91-.852 14.441 3.754 18.6 4.015 3.619 8.535 3.98 11.723-.483 2.997-4.189 2.053-8.29 2.502-11.44 0 0 .239-5.68 1.265-7.678 1.818-3.553 5.433-7.211 11.258-6.646 5.29.487 7.203 3.093 8.325 10.51 0 0 1.123 2.179 1.279 3.518.152 1.362-1.053 9.091-3.754 14.029-2.466 4.484-3.484 2.94-4.833 4.584-1.348 1.67-3.027 9.04-2.126 12.045.9 2.988 2.17 4.267 7.564 3.658 3.75-.409 6.029-2.662 9.295-9.291 2.632-5.368 6.181-19.67 4.798-27.87-1.235-7.312-4.089-15.976-12.3-22.488-7.187-5.694-14.199-3.702-16.93-2.253M223.42 182.08c-7.638-6.747-26.977-26.078-26.977-26.078-9.665-9.213-19.37-10.826-22.289-10.591-1.061.082-3.327 1.974-3.68 5.09-.47 4.24 3.48 7.533 5.281 9.33 1.792 1.787 2.336 1.6 3.698 3.845 1.318 2.218 1.617 2.514 8.186 8.721 1.348 1.34 1.131 4.263-1.344 6.738-2.467 2.462-8.287 9.247-8.287 9.247s.418-.856-.944 1.397c-1.36 2.244 1.64 2.85 3.224 3.52.7.299 3.114 1.517 6.029.369 2.096-.827 4.993-1.332 7.203-3.254 2.322-2.023 5.65-5.598 5.65-5.598 1.806-.9 2.188-1.405 3.528-.51 1.375.897 20.244 18.949 23.611 20.519 3.375 1.57 5.011 0 6.36-.905 1.348-.896 3.492-.108 3.57-5.885.092-7.443-5.18-9.204-12.818-15.955M736.44 173.659c2.254 2.261 1.645 2.749 2.824 4.114 1.796 2.088 6.037 5.264 8.138 6.843 3.245 2.448 10.144 9.552 10 11.8-.152 2.245.144 5.939-8.843 15.817-10.14 11.162-11.388 12.606-11.544 15.733-.148 3.18-.148 2.854 1.2 4.807 1.462 2.105 3.202 3.623 8.343.252 0 0 6.038-4.75 9.796-6.994 3.732-2.258 6.986-4.864 11.088-11.097 3.445-5.25 5.924-13.454-1.161-24.024-4.09-6.094-4.48-5.39-6.295-8.082-1.796-2.706-9.935-9.857-12.618-13.145-2.706-3.31-5.9-7.691-7.404-9.196-1.01-1-2.993-.291-4.193.6 0 0-2.806.992-2.654 4.437.157 3.463 1.079 5.886 3.323 8.135M693.107 181.967c.14 1.052.68 2.91 1.793 3.889 1.418 1.291 4.045.46 5.241.756 1.205.3 4.25.636 5.755.344 1.496-.309 1.783-.9 1.783-2.101.01-1.2 2.35-4.541 3.41-6.486 1.054-1.953.088-6.085-.969-7.43-1.044-1.36-2.736-1.46-5.433.64 0 0-2.253 1.94-5.107 2.101-2.836.144-5.724 3.04-6.325 4.842-.609 1.792-.304 2.392-.148 3.445" class="st2"/><path d="M757.855 259.007c-1.205-1.806-1.214-2.997-2.406-4.798-1.2-1.805-14.35-13.85-17.486-16.986-1.827-1.819-10.479-11.854-22.34-23.764a9.6 9.6 0 0 0 2.81.126c3.523-.378 5.245.162 6.28.31 1.062.147 9.352-5.194 9.605-9.31.296-4.784.274-8.738-.157-10.03-.887-2.697-4.34-4.35-7.347-1.953-1.483 1.196-3.727 1.362-4.489 1.5 0 0-4.493 1.515-6.59 5.094-2.114 3.606-2.844 4.955-3.906 6.299-.583.757-1.192 1.81-1.635 2.61-7.334-7.112-15.569-14.524-23.99-21.049 0 0-3.44-2.24-4.941-4.641-1.505-2.397-.24-5.172-4.198-6.6 0 0-2.248-.147-4.358.14-2.097.313-2.245 1.375-3.14 1.662-.91.304-3.746 1.048-2.55 4.04 1.2 3.007 1.649 4.955 3.001 6.304 1.358 1.352 2.354 3.94 4.15 5.454 1.801 1.488 7.095 4.285 10.088 6.686 2.997 2.397 29.592 25.268 34.533 30.81 4.946 5.555 24.664 26.595 27.508 30.631 2.845 4.05 3.898 3.611 6.603 4.207 2.693.596 5.89-1.005 6.638-2.053.74-1.057-.487-2.901-1.683-4.69M623.514 494.143c-44.608-115.142-2.996-210.28-2.996-210.28l-51.348-56.144H354.073l-51.377 56.143s41.634 95.139-2.981 210.28c-7.637 19.698-23.77 75.855 5.977 124.243 34.018 55.353 115.878 90.798 155.894 111.706l.028-.518.028.518c40.01-20.908 121.884-56.353 155.894-111.706 29.748-48.388 13.621-104.545 5.978-124.242" class="st2"/><path d="m309.383 530.425 152.126-147.848 155.538 151.139c-.488-3.026-.925-4.715-.925-4.715-2.162-8.498-4.787-17.19-7.588-26.423-9.855-32.66-22.916-69.723-22.916-123.536 0-31.169 6.356-56.08 14.097-92.31-8.658-9.296-32.24-33.78-39.785-41.885H363.215c-7.539 8.105-31.12 32.59-39.779 41.885 7.763 36.23 14.09 61.141 14.09 92.31 0 53.813-13.033 90.875-22.902 123.536-2.8 9.232-5.446 17.925-7.602 26.423 0 0-.415 1.627-.885 4.495z" class="st0"/><path d="M461.509 460.77 315.316 598.906c3.244 6.963 7.329 14.013 12.705 20.948 23.868 31.736 66.173 56.234 100.066 74.02 13.649 7.132 24.666 10.807 33.415 16.562v.076h.014c.028-.013.042-.013.07-.028 0 .015.028.015.056.028v-.076c8.75-5.755 19.76-9.43 33.416-16.562 33.885-17.786 76.197-42.284 100.059-74.02 5.362-6.913 9.439-13.94 12.68-20.881z" class="st0"/><path d="M363.397 293.48c0-3.808-.463-5.068-3.941-5.376v-1.26h17.618v1.365c-3.528.33-3.969 1.575-3.969 5.39v47.744c0 3.8.322 5.053 3.822 5.369v1.448h-17.471v-1.351c3.478-.28 3.94-1.547 3.94-5.34zM426.028 313.61v-19.878c0-3.822.33-5.075-2.926-5.39v-1.498h16.38v1.498c-3.612.315-4.004 1.568-4.004 5.39v47.582c0 3.816.392 5.069 3.933 5.398v1.448h-17.253v-1.351c3.59-.28 3.87-1.547 3.87-5.34v-23.505h-23.336v23.504c0 3.794.154 5.061 3.493 5.341v1.351h-16.96v-1.232c3.486-.3 3.99-1.568 3.99-5.361v-47.968c0-3.815-.365-5.06-4.018-5.39v-1.365h16.35v1.26c-3.177.322-2.855 1.568-2.855 5.376v20.13zM447.342 336.807c.91 2.52 7.098 8.973 16.82 8.973 6.516 0 10.401-4.395 10.401-10.863 0-6.327-4.416-10.352-11.255-13.83-7.251-3.62-16.33-8.947-16.33-18.354 0-9.197 7.448-17.079 20.495-17.079 5.27 0 9.428 1.232 12.319 2.072.371 3.654.602 5.642 1.07 8.456l-1.644.28c-.987-2.849-4.284-7.196-13.418-7.196-5.894 0-9.38 4.466-9.38 9.786 0 5.62 4.34 9.05 11.172 12.417 8.155 3.92 16.701 9.043 16.701 19.5 0 10.696-8.96 18.438-21.923 18.438-3.107 0-6.37-.49-8.665-1.135-2.506-.623-4.62-1.406-6.398-2.114-.826-2.688-1.063-6.09-1.568-8.945zM507.013 570.368l-4.382 13.005s4.634.63 9.044 1.862l-7.65 20.509s-14.917-2.506-29.343-3.22l.89-22.259s3.149-.028 7.489.42l1.484-12.977a284 284 0 0 0-22.707-.924c-7.664 0-15.26.322-22.776.924l1.47 12.977c4.346-.448 7.503-.42 7.503-.42l.882 22.259c-14.419.714-29.328 3.22-29.328 3.22l-7.644-20.593c4.578-1.064 9.058-1.756 9.058-1.756l-4.417-13.013c-16.197 2.569-31.98 6.468-47.163 11.647 19.27 26.48 37.847 63.297 37.847 63.297 58.964-11.759 109.088 0 109.088 0 8.882-18.961 30.146-53.553 37.819-63.325-15.19-5.166-30.953-9.057-47.164-11.633" class="st2"/></svg>