<svg xmlns="http://www.w3.org/2000/svg" id="레이어_1" viewBox="0 0 173.95 232.03"><defs><style>.cls-1,.cls-2{fill:#003e8a}.cls-1{fill-rule:evenodd}.cls-3{fill:#fff}</style></defs><path d="m79.26 212 7.72 5.31L94.7 212c39.2-26.94 57.46-66.54 57.46-124.62v-42H21.8v42c0 58.08 18.26 97.68 57.46 124.62" class="cls-1"/><path d="M136.8 187.95c.77-1.07 1.51-2.16 2.25-3.25v-.07c17.05-25.48 25.2-57.34 25.2-97.25V42.87h-9.66v44.51c0 59-18.59 99.21-58.53 126.66l-9.12 6.27-9.12-6.27c-39.94-27.45-58.53-67.69-58.53-126.66V42.87H9.62v44.51c0 39.9 8.16 71.76 25.2 97.24l.06.1c.73 1.07 1.46 2.14 2.22 3.2v.09c-1.68-1.5-3.33-3.07-4.88-4.74a84 84 0 0 1-4.73-5.74c-3 8.26-4.85 16.19-4.85 23.24h24.89A147.3 147.3 0 0 0 72.31 222l14.59 10 14.61-10a147.6 147.6 0 0 0 24.77-21.23h25c0-7.08-1.82-15.05-4.89-23.34-1.52 2-3.11 4-4.8 5.84-1.55 1.67-3.2 3.24-4.89 4.74v-.06Z" class="cls-1"/><path d="M164.29 33.21h9.66v9.66h-9.66zM154.63 23.55h9.66v9.66h-9.66zM9.67 42.88H.01v-9.66h9.66zM19.32 33.21H9.66v-9.66h9.66z" class="cls-2"/><path d="M9.67 42.88H.01v-9.66h9.66z" class="cls-2"/><path d="M144.97 33.21v-9.66h-9.66V12.8a16.8 16.8 0 0 1-6 1.09h-3.62V34.7l-.59.31a17.2 17.2 0 0 1-8 2.27c-3.68 0-6.9-1.21-10.89-3.17s-6.37-2.67-8.63-2.67a9 9 0 0 0-1.18.08c-3.56.43-6.49 2.94-8.07 4.29-.34.29-.62.53-.84.69l-.47.35-.47-.35c-.22-.16-.5-.4-.84-.69-1.58-1.35-4.51-3.86-8.07-4.29a9 9 0 0 0-1.18-.08c-2.26 0-4.76.78-8.63 2.67s-7.21 3.17-10.89 3.17a17.2 17.2 0 0 1-8-2.27l-.59-.31V13.89H44.6a15.1 15.1 0 0 1-5.91-1.09v10.75h-9.66v9.66h-9.66v9.66h135.3v-9.66Z" class="cls-1"/><path d="M88.21 3.71v29c14.41-11.31 21.46 7.55 35 .52V4.21c-13.54 7-20.59-11.82-35-.5M50.78 4.21v29c13.51 7 20.55-11.84 35-.51v-29c-14.45-11.31-21.49 7.51-35 .51" class="cls-2"/><path d="M104.11 163.78a95 95 0 0 1-17.12 18.54c-22.22-18.54-33.76-43.66-36.28-79.16h9.08c-.37-5-.56-10.26-.56-15.77H35.48q0 8.11.5 15.77c2.84 42.88 18 74.87 51 97.61a115.6 115.6 0 0 0 26-24.2 63.6 63.6 0 0 1-8.87-12.79" class="cls-3"/><path d="M116.48 133.8c3.51-8.67 5.73-18.8 6.73-30.64q.63-7.43.63-15.77h14.73c0 34.21-6.56 62.14-22.09 84.51a62 62 0 0 1-8.77-13.58 106.7 106.7 0 0 1-7-19 79 79 0 0 1-13.68 22.45c-12.72-14.56-19.62-33.37-21.55-58.56q-.57-7.5-.57-15.77h14.72q0 8.35.63 15.77c1 11.84 3.22 22 6.74 30.64 3.51-8.67 5.73-18.8 6.74-30.64q.62-7.43.62-15.77h14.72q0 8.35.63 15.77c1 11.84 3.22 22 6.73 30.64ZM47.83 57.53q0-4.2 3.86-4.2a4 4 0 0 1 2.79.88 3.29 3.29 0 0 1 1 2.58v.11h-2v-.1a1.75 1.75 0 0 0-.46-1.28 1.8 1.8 0 0 0-1.32-.47 1.64 1.64 0 0 0-1.4.59 3.4 3.4 0 0 0-.43 2v2.27a3 3 0 0 0 .45 1.86 1.66 1.66 0 0 0 1.41.58 1.72 1.72 0 0 0 1.3-.46 1.7 1.7 0 0 0 .45-1.25v-.12h2v.11a3.31 3.31 0 0 1-1 2.6 4 4 0 0 1-2.77.91q-3.82 0-3.83-4.2ZM64.78 64.02h-2v-4.46h-3.5v4.46h-2V53.49h2v4.33h3.5v-4.33h2ZM68.8 61.97l-.64 2.05h-2.11l3.74-10.53h1.63l3.76 10.53h-2.12l-.64-2.05Zm1.8-5.71-1.27 4.05h2.55ZM84.33 64.02h-2l-3.85-6.58v6.58h-2V53.49h2l3.88 6.59v-6.59h2ZM86.3 57.53q0-4.2 3.86-4.2a4 4 0 0 1 2.75.91 3.19 3.19 0 0 1 1 2.51v.11h-2v-.11a1.63 1.63 0 0 0-.46-1.19 1.8 1.8 0 0 0-1.32-.47 1.64 1.64 0 0 0-1.4.59 3.4 3.4 0 0 0-.44 2v2.27a3 3 0 0 0 .47 1.87 1.75 1.75 0 0 0 1.44.57 1.69 1.69 0 0 0 1.34-.47 2.1 2.1 0 0 0 .42-1.43v-.51H90.1v-1.65h3.81v1.8c0 2.7-1.26 4.05-3.8 4.05s-3.83-1.4-3.83-4.2ZM105.48 64.02h-1.84l-1.92-7.8-1.91 7.8H98l-2.6-10.53h2l1.59 7.43 1.54-7.43h2.49l1.62 7.43 1.49-7.43h1.86ZM108.61 57.53c0-2.8 1.27-4.2 3.83-4.2a3.84 3.84 0 0 1 2.78 1 4.3 4.3 0 0 1 1 3.21v2.41a4.22 4.22 0 0 1-1.05 3.21 3.9 3.9 0 0 1-2.81 1c-2.52 0-3.77-1.4-3.77-4.2Zm5.63 2.38v-2.27a3.3 3.3 0 0 0-.45-1.95 1.56 1.56 0 0 0-1.35-.6 1.6 1.6 0 0 0-1.39.59 3.36 3.36 0 0 0-.43 2v2.27a3.12 3.12 0 0 0 .43 1.87 1.62 1.62 0 0 0 1.39.57 1.57 1.57 0 0 0 1.35-.58 3.1 3.1 0 0 0 .45-1.9M125.94 64.02h-2l-3.88-6.58v6.58h-2V53.49h2l3.88 6.59v-6.59h2ZM43.32 79.63h-2l-3.84-6.58v6.58h-2V69.1h2l3.88 6.59V69.1h2ZM47.33 77.58l-.64 2.05h-2.1l3.74-10.53h1.63l3.75 10.53h-2.12l-.64-2.05Zm1.81-5.71-1.27 4h2.55ZM57.93 70.84v8.79h-2v-8.79h-2.69V69.1h7.39v1.74ZM64.01 69.1v10.53h-2V69.1ZM66.07 73.14q0-4.2 3.84-4.2a3.8 3.8 0 0 1 2.77 1 4.3 4.3 0 0 1 1 3.21v2.41a4.22 4.22 0 0 1-1.05 3.21 3.94 3.94 0 0 1-2.82 1q-3.76 0-3.77-4.2Zm5.64 2.38v-2.31a3.3 3.3 0 0 0-.45-2 1.56 1.56 0 0 0-1.35-.6 1.6 1.6 0 0 0-1.39.58 3.4 3.4 0 0 0-.43 2v2.27a3.14 3.14 0 0 0 .43 1.87 1.62 1.62 0 0 0 1.39.57 1.55 1.55 0 0 0 1.35-.59 3.05 3.05 0 0 0 .45-1.79M83.4 79.63h-2l-3.87-6.58v6.58h-2V69.1h2l3.87 6.59V69.1h2ZM87.42 77.58l-.64 2.05h-2.1l3.74-10.53h1.63l3.75 10.53h-2.12l-.64-2.05Zm1.8-5.71-1.26 4h2.52ZM97.07 69.1v8.79h4.61v1.74h-6.6V69.1ZM107.55 78a3.57 3.57 0 0 1-.49-1.85V69.1h2v7a2 2 0 0 0 .47 1.4 1.72 1.72 0 0 0 1.3.5 1.75 1.75 0 0 0 1.31-.5 1.93 1.93 0 0 0 .48-1.4v-7h2v7.05a3.5 3.5 0 0 1-.49 1.85 3.4 3.4 0 0 1-1.36 1.27 4.41 4.41 0 0 1-3.88 0 3.37 3.37 0 0 1-1.34-1.27M124.62 79.63h-2l-3.88-6.58v6.58h-2V69.1h2l3.88 6.59V69.1h2ZM128.82 69.1v10.53h-2V69.1ZM132.28 69.1l2.07 7.28 2.08-7.28h2.05l-3.38 10.53h-1.6l-3.35-10.53ZM95.68 16.21v-1.43l1.17-.88h1.32v6.95h-1.32v-5.49ZM101.87 18.11a1.7 1.7 0 0 1-1.3-.52 1.94 1.94 0 0 1-.49-1.41v-.32a2 2 0 0 1 .59-1.55 2.17 2.17 0 0 1 1.56-.55 2.23 2.23 0 0 1 1.58.54 2 2 0 0 1 .56 1.51v.32a2.5 2.5 0 0 1-.11.78 6 6 0 0 1-.34.82l-1.59 3.09h-1.39l1.44-2.81a1.2 1.2 0 0 1-.51.1m1.17-2v-.33a1 1 0 0 0-.21-.67.88.88 0 0 0-1.21 0 1 1 0 0 0-.22.67v.32a1 1 0 0 0 .22.67.78.78 0 0 0 .61.23.78.78 0 0 0 .6-.23 1 1 0 0 0 .21-.65ZM106.09 18.88v-.31a2.6 2.6 0 0 1 .11-.79 5 5 0 0 1 .34-.81l1.59-3.1h1.35l-1.44 2.81a1.4 1.4 0 0 1 .51-.1 1.73 1.73 0 0 1 1.3.52 2 2 0 0 1 .49 1.42v.32a2 2 0 0 1-.59 1.54 2.48 2.48 0 0 1-3.13 0 2 2 0 0 1-.53-1.5m3 0v-.31a1 1 0 0 0-.22-.67.88.88 0 0 0-1.21 0 1 1 0 0 0-.21.66v.33a1 1 0 0 0 .21.66.86.86 0 0 0 1.21 0 1 1 0 0 0 .19-.65ZM113.88 18.11a1.68 1.68 0 0 1-1.3-.52 1.94 1.94 0 0 1-.49-1.41v-.32a2 2 0 0 1 .59-1.55 2.52 2.52 0 0 1 3.13 0 2 2 0 0 1 .57 1.51v.32a2.9 2.9 0 0 1-.11.78 6 6 0 0 1-.34.82l-1.59 3.09h-1.39l1.44-2.81a1.2 1.2 0 0 1-.51.09m1.17-2v-.33a1 1 0 0 0-.21-.67.88.88 0 0 0-1.21 0 1 1 0 0 0-.22.67v.32a.93.93 0 0 0 .22.67.78.78 0 0 0 .61.23.78.78 0 0 0 .6-.23 1 1 0 0 0 .21-.65ZM61.3 16.76h2.64v1.15H61.3v1.79h3.1v1.14h-4.42v-6.95h4.42v1.15h-3.1ZM65.8 18.73h1.25a1.2 1.2 0 0 0 .37.81 1.38 1.38 0 0 0 .88.24c.75 0 1.12-.31 1.12-.92a.82.82 0 0 0-.22-.63 1.4 1.4 0 0 0-.71-.3l-.65-.11c-1.26-.21-1.88-.85-1.88-1.93a1.94 1.94 0 0 1 .64-1.54 2.48 2.48 0 0 1 1.69-.56 2.34 2.34 0 0 1 1.63.54 2.24 2.24 0 0 1 .68 1.54h-1.27a1 1 0 0 0-.29-.74 1.16 1.16 0 0 0-.77-.23 1.1 1.1 0 0 0-.77.24.8.8 0 0 0-.26.65.71.71 0 0 0 .23.57 1.4 1.4 0 0 0 .72.3l.74.13a1.87 1.87 0 0 1 1.79 2 2 2 0 0 1-.67 1.6 2.74 2.74 0 0 1-1.81.55 2.54 2.54 0 0 1-1.74-.55 2.3 2.3 0 0 1-.7-1.66M75.05 15.04v5.8h-1.34v-5.8h-1.77v-1.15h4.88v1.15Z" class="cls-3"/></svg>