<svg xmlns="http://www.w3.org/2000/svg" width="158.07561mm" height="117.23812mm" viewBox="0 0 158.07561 117.23812"><g style="fill:#fff;stroke-width:.294031"><path d="m0 0-.586-3.696 2.498.479zm69.202-68.201s-.766-.192-.851-.212l.524-2.112.75.185c.729.181 1.135.596 1.135 1.136q0 .14-.037.292c-.163.65-.717.91-1.521.711m-5.007-1.573a1.83 1.83 0 0 1-1.439.264 1.83 1.83 0 0 1-1.224-.794c-.406-.605-.53-1.501-.34-2.455.262-1.302 1.125-2.711 2.697-2.397.541.108.96.381 1.244.807.395.594.512 1.484.317 2.444-.188.952-.645 1.729-1.255 2.131m-52.241-1.368s-.784.108-.87.121l-.295-2.158.766-.105c.483-.066.884.01 1.161.22q.323.247.386.7.01.09.011.174c0 .569-.414.947-1.159 1.048m31.507-1.495c-.386.342-.854.495-1.389.46a1.84 1.84 0 0 1-1.322-.62c-.486-.544-.732-1.412-.674-2.384.058-.976.397-1.807.929-2.28.385-.341.858-.497 1.41-.464s1.004.243 1.345.627c.471.532.709 1.399.651 2.375-.057.972-.403 1.805-.95 2.286m52.531 4.229c0-1.315-.152-1.663-.349-2.123-.289-.675-1.082-1.093-1.082-1.093-18.381-8.102-41.334-12.135-61.925-12.135-20.594 0-43.546 4.033-61.927 12.135 0 0-.796.418-1.082 1.093-.198.46-.352.808-.352 2.123v62.06c0 1.314.154 1.662.352 2.123.286.674 1.082 1.09 1.082 1.09C-10.91 4.966 12.042 9.001 32.636 9.001c20.591 0 43.544-4.035 61.925-12.136 0 0 .793-.416 1.082-1.09.197-.461.349-.809.349-2.123zm1.737 65.817c-.592.899-1.432 1.418-1.906 1.657-18.572 7.999-41.679 12.45-63.187 12.45-21.509 0-44.62-4.451-63.192-12.45-.471-.239-1.311-.758-1.903-1.657-.645-.974-.764-2.644-.783-3.718V-68.38c.019-1.076.138-2.743.783-3.72.536-.815 1.281-1.321 1.769-1.587 18.609-8.041 41.764-12.512 63.326-12.512 21.557 0 44.714 4.471 63.324 12.512.485.266 1.231.772 1.769 1.587.644.977.764 2.644.781 3.72v62.071c-.017 1.074-.137 2.744-.781 3.718M80.947-68.668c.121.041 2.289.772 2.41.814-.08.101-2.175 2.736-2.329 2.928-.007-.246-.079-3.613-.081-3.742M41.204-2.645c.552-.027 1.025.132 1.406.477.529.478.861 1.311.911 2.287.049.972-.204 1.839-.693 2.377a1.84 1.84 0 0 1-1.329.611 1.84 1.84 0 0 1-1.382-.469c-.543-.486-.885-1.323-.934-2.294-.069-1.326.42-2.906 2.021-2.989M85.248-70.24l-1.251 1.569c-.063-.02-3.003-1.011-3.065-1.031l-.047-2.01-1.06-.356.341 8.118.991.336.032.01 5.157-6.268zm-10.103-3.178-2.117 7.284 3.672 1.066.048.013.289-1-2.697-.784c.025-.086.556-1.92.583-2.008l2.456.714.291-1.001s-2.365-.685-2.456-.713c.026-.088.637-2.187.661-2.276l2.697.784.292-1zm-2.635-.704-1.648 2.296c-.446.61-.722.542-1.221.419 0 0-.436-.111-.515-.129l.803-3.228-1.032-.257-1.83 7.362 1.651.41c.749.186 1.6.324 2.241-.061.411-.248.687-.676.846-1.312a2 2 0 0 0 .057-.465c0-.648-.351-1.22-.945-1.531.281-.064.471-.201.766-.568l2-2.645zm-8.417-2.055c-1.961-.393-3.53.864-3.999 3.198-.461 2.3.527 4.106 2.458 4.493 1.93.385 3.537-.899 3.998-3.199.468-2.335-.496-4.099-2.457-4.492m-3.657-.587s-1.393-.217-1.434-.205l-3.428 3.073.551-3.539-1.051-.164-1.165 7.495 1.049.164.493-3.174c.337.533 2.27 3.589 2.301 3.609l1.271.197.108.017-2.623-4.039 4.033-3.417zM48.431-78.37l-1.06-.108-.764 7.546 3.614.367.049.004.103-1.036-2.602-.263c.008-.091.202-1.989.21-2.08l2.488.251.105-1.036-2.488-.251zm-3.79.401c-.532-.599-1.281-.943-2.164-.996-1.998-.12-3.378 1.34-3.52 3.718-.139 2.342 1.088 3.993 3.053 4.111 1.968.115 3.382-1.379 3.521-3.718.075-1.277-.24-2.382-.89-3.115m-8.853 6.354s-2.621-4.33-2.626-4.325l-.007-3.181-1.062.001.006 3.169-2.62 4.347-.045.075 1.243-.002 1.973-3.314 1.939 3.307 1.244-.004zm-7.15-.925-2.094.094-.291-6.537-1.062.047s.288 6.441.291 6.536l-2.092.094.046.992.002.048 5.246-.233zm-6.941-6.19-1.059.078.551 7.515.003.048 1.061-.077zm-3.976 4.875c.778-.524 1.661-1.116 1.52-2.537-.145-1.441-1.138-2.177-2.725-2.019-.488.048-.939.249-1.36.451l-.033.017.217 1.087.058-.037c.176-.102.79-.44 1.336-.494.282-.028.69.033.995.283q.341.28.39.758c.072.736-.471 1.093-1.099 1.506-.731.48-1.56 1.023-1.431 2.306.125 1.26 1.069 1.988 2.406 1.856a4.1 4.1 0 0 0 1.422-.415l.034-.016-.256-1.069-.056.031c-.466.261-.721.38-1.209.429-.219.023-.63.024-.915-.21q-.262-.214-.302-.622c-.059-.59.435-.922 1.008-1.305m-3.506 1.361c-.115-.846-.743-1.441-1.567-1.524.243-.166.368-.363.502-.812l.881-3.198-1.196.162-.682 2.743c-.189.733-.469.771-.978.841l-.527.07-.45-3.294-1.053.145 1.02 7.465.006.049 1.684-.229c.766-.105 1.61-.293 2.061-.887.222-.291.331-.652.331-1.096q0-.204-.032-.435m-5.698 1.855-2.767.487-.363-2.06 2.52-.443-.179-1.026s-2.428.426-2.52.444l-.41-2.334 2.765-.487-.179-1.026-3.815.67 1.307 7.424.009.047 3.812-.671zm-10.078-4.712-.886 7.894-.008.066 1.159-.254.623-6.751 3.438 5.865 1.092-.239-4.17-6.853zm-3.778.894-1.031.26 1.849 7.304.012.048 1.03-.259zm-4.405 1.162-1.19 6.635-1.682-5.801-1.023.297 2.104 7.236.013.047 1.337-.388 1.15-6.484 1.649 5.671 1.019-.296-2.114-7.284zm-8.426 2.499c-.716.245-1.221.66-1.5 1.234-.349.713-.334 1.632.044 2.731l1.426 4.149.016.046 1.004-.345-1.394-4.064c-.315-.913-.354-1.588-.121-2.066.16-.327.443-.555.864-.7.415-.143.788-.135 1.11.022.478.233.863.791 1.177 1.705l1.395 4.062 1.004-.344-1.439-4.197c-.687-1.999-1.961-2.792-3.586-2.233m72.331 9.83v-4.642c-7.554-.899-15.125-1.356-21.511-1.356-13.512 0-32.337 2.047-45.054 5.998zm-71.89 16.748h61.034v-2.124H8.074v-9.043h49.547v16.749h25.412v-17.692c-.013-.706-.103-1.802-.592-2.441-.406-.534-.968-.865-1.337-1.042-6.294-2.362-14.752-4.154-23.483-5.354v7.66h-75.243c-.075.42-.1.842-.107 1.177zm0 27.503c.003.133.01.283.02.438H8.074v-24.481h-25.803zm2.66 13.438c.452.806 1.196 1.375 2.153 1.645.561.157 1.074.191 1.568.101l.033-.006.231-1.137-.08.027a2.45 2.45 0 0 1-1.424.025c-.65-.184-1.158-.574-1.471-1.131-.364-.649-.432-1.476-.191-2.329.452-1.606 1.787-2.488 3.177-2.098.423.119 1.018.417 1.289.734l.055.065.376-1.098-.025-.022c-.329-.281-.808-.512-1.424-.684-.97-.273-1.899-.185-2.683.255-.877.492-1.518 1.383-1.853 2.575-.313 1.117-.219 2.209.269 3.078M-.724 1.084l1.03.196.032.008L4.6-5.62l-1.138-.218-1.027 1.727c-.066-.014-3.111-.596-3.177-.609l-.318-1.984-1.098-.209zM15.32 3.441l.049.006.115-1.035s-1.987-.225-2.08-.237l.734-6.501-1.057-.12-.733 6.503-2.083-.236-.118 1.036Zm38.841-42.077v-13.287H11.536v2.124h35.231v9.041H11.536v27.942h-26.217C-5.589-9.614 7.527-7.527 19.516-6.61v-32.026zm-21.16 16.747h50.032v-2.123H33.001Zm50.032-13.286H57.621v2.12h25.412zm-50.032 7.703h50.032v-2.123H33.001ZM22.976-16.308h60.04c.008-.143.014-.283.017-.407v-1.713H29.544v-14.627h24.617v-2.12H22.976Zm0 9.932c3.404.2 6.672.303 9.674.303 14.374 0 34.804-2.31 47.413-6.773H22.976Zm2.025 10.48.104-3.13 3.124.105-.104 3.13 1.016.034.048.001.25-7.58-1.062-.036-.113 3.408c-.094-.002-3.032-.099-3.125-.103.002-.095.114-3.409.114-3.409l-1.065-.035-.25 7.58zM38.064.401c.065 1.264.508 2.326 1.247 2.992.597.539 1.374.8 2.243.754 1.967-.1 3.206-1.743 3.086-4.084-.065-1.277-.501-2.341-1.229-2.998-.595-.536-1.377-.795-2.261-.75s-1.635.385-2.172.98c-.656.727-.98 1.831-.914 3.106m15.677 2.518.006.047 1.056-.139-.858-6.487 2.794-.368-.136-1.034-3.848.508zM66.061.943l.009.048 1.043-.21-1.495-7.435-1.043.209zm8.763-5.793c.614 2.205 2.472 3.35 4.521 2.782.562-.157 1.019-.393 1.393-.725l.026-.022-.392-1.091-.056.062c-.327.374-.732.63-1.204.759-.651.181-1.289.11-1.843-.204-.648-.366-1.134-1.038-1.371-1.892-.235-.848-.162-1.675.209-2.33.31-.549.815-.941 1.42-1.11.422-.117 1.086-.172 1.484-.041l.082.026-.249-1.134-.032-.005c-.43-.07-.945-.02-1.573.152-2.108.585-3.055 2.459-2.415 4.773m18.086.988C74.594 3.827 52.617 7.724 32.628 7.724c-19.994 0-41.97-3.897-60.284-11.586-1.195-.591-1.772-1.117-1.772-2.472v-62.031c0-1.356.577-1.88 1.772-2.473 18.314-7.688 40.29-11.588 60.284-11.588 19.989 0 41.966 3.9 60.282 11.588 1.193.593 1.771 1.117 1.771 2.473v62.031c0 1.355-.578 1.881-1.771 2.472" style="fill:#fff;fill-opacity:1;fill-rule:nonzero;stroke:none;stroke-width:.294031" transform="matrix(1.1998 0 0 -1.1998 39.884 13.817)"/></g></svg>