<svg xmlns="http://www.w3.org/2000/svg" xml:space="preserve" width="181" height="168" overflow="hidden"><defs><clipPath id="a"><path d="M549 276h181v168H549z"/></clipPath><clipPath id="b"><path d="M550 276h180v168H550z"/></clipPath><clipPath id="c"><path d="M550 276h180v168H550z"/></clipPath><clipPath id="d"><path d="M550 276h180v168H550z"/></clipPath></defs><g clip-path="url(#a)" transform="translate(-549 -276)"><g clip-path="url(#b)"><g clip-path="url(#c)"><g fill="#FFF" clip-path="url(#d)"><path d="M699.19 413.695a1.757 1.757 0 0 0-2.429.472 1.733 1.733 0 0 0 .474 2.415c.794.531 1.87.33 2.415-.451a1.734 1.734 0 0 0-.438-2.422l-.022-.014ZM626.948 413.556a1.527 1.527 0 0 1 1.38-.06 3.137 3.137 0 0 1 1.61 1.382l.51-1.332a4.992 4.992 0 0 0-1.8-1.163 2.943 2.943 0 0 0-3.1.357c-.268.238-.471.539-.59.875-.3.878-.068 1.848.6 2.496.129.152.27.295.42.428l.43.387c.43.303.727.759.83 1.273.006.163-.022.325-.08.477a1.424 1.424 0 0 1-2 .646 3.923 3.923 0 0 1-1.541-1.143 3.752 3.752 0 0 1-.31-.417l-.54 1.411c.17.149.32.289.49.418a7.039 7.039 0 0 0 1.58.895 3.35 3.35 0 0 0 3.26-.338c.293-.258.52-.582.66-.945a2.293 2.293 0 0 0 0-1.65 3.982 3.982 0 0 0-.93-1.243l-.49-.457c-.46-.428-1.1-.995-.82-1.75.079-.225.23-.417.43-.547ZM629.39 421.802l1.675-5.677 1.353.394-1.675 5.677ZM633.019 414.62a.725.725 0 0 0-.496-.901l-.015-.004a.781.781 0 0 0-.74.159.747.747 0 0 0 .315 1.248.752.752 0 0 0 .936-.502ZM637.08 417.463a3.492 3.492 0 0 0-1.21-.05l-1.001.885.23-1.093-1.37-.289-1.21 5.797 1.37.288.93-4.434a2.452 2.452 0 0 1 1.41-.159 1.155 1.155 0 0 1 1 1.551c0 .199-.08.398-.11.586l-.62 2.983 1.38.289.81-3.858c.068-.31.092-.628.07-.945a1.857 1.857 0 0 0-1.68-1.551ZM642.38 424.483c.42.05.847.03 1.26-.06l.79-1.064c-.484.153-.993.21-1.5.169a1.992 1.992 0 0 1-1.84-2.297 2.047 2.047 0 0 1 1.21-1.749c.282-.101.583-.135.88-.1.446.043.868.22 1.21.507.06.042.115.092.16.149l.14-1.233c-.476-.259-1-.425-1.54-.487a3.266 3.266 0 0 0-2.37.577 3.185 3.185 0 0 0-1.2 2.217 2.9 2.9 0 0 0 1.65 3.033c.36.18.75.295 1.15.338ZM650.072 419.601a2.504 2.504 0 0 0-2.15-1.044 2.74 2.74 0 0 0-2.681 1.809c-.146.409-.22.84-.22 1.273a3.09 3.09 0 0 0 .81 2.247 3.47 3.47 0 0 0 2.4.875c.476.003.95-.057 1.41-.179l.71-1.183a4.471 4.471 0 0 1-1.7.348 1.881 1.881 0 0 1-1.94-1.124 2.855 2.855 0 0 1-.17-.904l4 .049a3.747 3.747 0 0 0-.47-2.167Zm-3.501 1.233c.02-.132.06-.259.12-.378.146-.568.65-.973 1.24-.994a1.15 1.15 0 0 1 1.12.785c.053.188.084.382.09.577ZM659.453 423.677l-1.32-8.252-2.53 1.839.19 1.193 1.16-.874 1.01 6.333 1.49-.239ZM659.903 418.109a2.481 2.481 0 0 0 2.921 1.932 2.482 2.482 0 0 0 1.39-.808c0 .179-.06.368-.1.557a7.547 7.547 0 0 1-2.22 3.45l2.13-.527c.396-.46.732-.968 1-1.511a5.936 5.936 0 0 0 .6-4.226 2.989 2.989 0 0 0-2.35-2.416 3.178 3.178 0 0 0-1.28.06 2.758 2.758 0 0 0-2.2 2.426c-.032.358.005.719.109 1.063Zm1.9-2.127c.157-.131.342-.223.54-.269.28-.078.576-.057.84.06.47.239.796.686.88 1.203a1.67 1.67 0 0 1-.269 1.531c-.175.2-.41.339-.67.398a1.381 1.381 0 0 1-1.71-1.203 1.683 1.683 0 0 1 .39-1.72ZM672.886 416.449l-1.181.438-1.75-4.673-1.6.586-1.33 6.622.13.358 3.55-1.323.73 1.929 1.36-.507-.73-1.929.43-.159Zm-4.32 1.611.609-3.848 1.18 3.182ZM676.666 417.026a3.424 3.424 0 0 1-2.19.258l.65 1.273a5.355 5.355 0 0 0 2.19-.547 2.982 2.982 0 0 0 1.91-2.814 2.701 2.701 0 0 0-.29-1.113 2.666 2.666 0 0 0-1.08-1.124 2.144 2.144 0 0 0-.77-.278 3.82 3.82 0 0 0-2.16.368l-.41.189-.5-1.641 2.64-1.322-.52-1.044-3.79 1.988 1.18 3.749c.29-.169.57-.338.87-.488a3.284 3.284 0 0 1 1.86-.447 1.562 1.562 0 0 1 1.11 2.486 1.996 1.996 0 0 1-.7.507ZM659.844 373.09v-7.776a223.425 223.425 0 0 1-18.184 13.632v-23.167l-4.71 1.174c-4.452 1.103-8.852 2.167-13.663 3.31v29.679a192.076 192.076 0 0 1-35.716 14.576v-94.385c6 .358 21.073 2.983 35.716 6.473v23.325c5.21-.13 9.942-.259 14.772-.358l3.601-.07v-17.36a147.28 147.28 0 0 1 18.184 5.867v-7.795c-30.066-22.341-107.94-27.77-109.84-26.855v140.19c6.701-1.163 70.732-15.51 109.84-60.46ZM614.915 296.83l-2.49-5.767 5.911-2.525 2.49 5.766 2.35-1.004-5.44-12.607-2.36 1.004 2.18 5.031-5.911 2.525-2.18-5.03-2.351 1.004 5.45 12.607 2.351-1.004ZM626.187 289.025l5.351-1.233 2 3.032 2.721-.626-8.341-12.16-2.43.557-2.321 14.616 2.52-.577Zm1-7.288v-.726c.11.219.25.447.38.666l3.001 4.584-4.15.994ZM638.84 290.128l-.51-9.892 9.411 9.505.9-.03-.6-13.711-2.5.11.45 8.5-7.892-8.182-2.4.109.6 13.7 2.54-.109ZM653.743 290.725c.579.07 3.48.358 5-1.77a3.889 3.889 0 0 0 .67-1.76 3.723 3.723 0 0 0-.64-2.585 6.493 6.493 0 0 0-2-1.61l-.94-.527c-.9-.498-2.13-1.184-2-2.456.048-.374.216-.723.479-.994a2.501 2.501 0 0 1 2.14-.627c1.206.141 2.321.701 3.151 1.581l.28-2.297a8.2 8.2 0 0 0-3.28-1.133 4.797 4.797 0 0 0-4.752 1.75 3.731 3.731 0 0 0-.59 1.61 3.9 3.9 0 0 0 1.921 3.7c.28.188.55.367.82.516l.83.457c.8.296 1.449.898 1.8 1.67.082.254.102.523.061.786-.1.845-.9 1.989-2.891 1.78a6.492 6.492 0 0 1-2.87-1.173 7.048 7.048 0 0 1-.65-.527l-.26 2.346c.301.172.612.328.93.468.893.377 1.83.644 2.79.795ZM663.523 292.216c.65.396 1.35.703 2.08.915.672.199 4.412 1.283 6.423-1.511a6.193 6.193 0 0 0 1-2.108l2.42-8.163-2.44-.756-2.22 7.447a4.964 4.964 0 0 1-1.491 2.874c-.9.647-2.063.814-3.11.447a3.736 3.736 0 0 1-1.891-1.183 2.723 2.723 0 0 1-.62-2.247c.102-.631.256-1.253.46-1.86l2.19-7.357-2.48-.725-2.43 8.162a6.693 6.693 0 0 0-.331 2.695 4.863 4.863 0 0 0 2.44 3.37ZM675.516 296.402l4.62-8.79 3.25 12.956.792.418 6.491-12.11-2.211-1.174-3.96 7.557-2.61-11.036-2.121-1.124-6.492 12.11 2.241 1.193ZM696.03 301.175l-2.09.726 2.73 2.236-2 2.397a5.77 5.77 0 0 1-2.45-1.193 5.022 5.022 0 0 1-2.002-3.798 5.39 5.39 0 0 1 .09-1.064c.19-.95.601-1.842 1.201-2.605a5.119 5.119 0 0 1 5.611-1.73 5.72 5.72 0 0 1 2 1.123 7.852 7.852 0 0 1 2.38 3.47l1.531-1.8a13.112 13.112 0 0 0-2.8-3.23 8.613 8.613 0 0 0-5.622-2.099 7.166 7.166 0 0 0-5.23 2.625 6.71 6.71 0 0 0-.81 7.855 8.736 8.736 0 0 0 2.15 2.505 12.141 12.141 0 0 0 5.021 2.377l4-4.753ZM708.242 321.448a6.266 6.266 0 0 0 2-1.104l6.912-5.031-1.481-2.068-6.311 4.593a5.01 5.01 0 0 1-2.89 1.373 3.375 3.375 0 0 1-2.74-1.522 3.638 3.638 0 0 1-.781-2.078 2.715 2.715 0 0 1 .88-2.157c.468-.435.966-.837 1.49-1.203l6.232-4.534-1.521-2.068-6.911 4.971a6.985 6.985 0 0 0-1.91 1.989 4.944 4.944 0 0 0-.13 4.195 8.373 8.373 0 0 0 1.09 1.989c.45.557 2.76 3.669 6.07 2.655ZM708.112 327.353l9.022-4.225-5.282 12.27.38.814 12.523-5.756-1.04-2.257-7.742 3.639 4.61-10.36-1.009-2.168-12.522 5.757 1.06 2.286ZM712.63 338.148l13.193-4.034.76 2.451-13.193 4.035ZM715.123 348.223l14.593 2.933-.47-2.506-11.353-2.028 9.882-5.836-.52-2.774-12.562 7.884.43 2.327ZM716.193 361.506l2.01 1.064-.21-6.383 4.24-.14.152 4.733 1.96-.06-.16-4.732 3.67-.12.18 5.5 1.96-.07-.27-8.044-13.792.447.26 7.805ZM715.913 365.563l5.881.666-.08.736c-.058.455-.09.913-.1 1.372l-6.36 2.933-.332 2.844.281-.13c-.17.229-.34.458-.49.706a11.36 11.36 0 0 0-1.18 2.685c-.15.566-.82 3.38 1.09 5.17.47.431 1.04.739 1.66.895a3.69 3.69 0 0 0 2.66-.279 6.477 6.477 0 0 0 1.871-1.7l.66-.855c.62-.825 1.46-1.988 2.71-1.621.36.102.68.314.91.607a2.43 2.43 0 0 1 .32 2.197 4.971 4.971 0 0 1-2 2.814l2.251.597a8.122 8.122 0 0 0 1.57-3.083 4.703 4.703 0 0 0-1.1-4.911 3.645 3.645 0 0 0-1.52-.806 3.935 3.935 0 0 0-4 1.392c-.224.231-.431.477-.622.736l-.569.756a3.241 3.241 0 0 1-1.91 1.551c-.262.052-.53.052-.79 0-.83-.219-1.901-1.164-1.381-3.092a6.74 6.74 0 0 1 2.26-3.311l-2.17-.587 6.46-2.983c.15.38.346.74.581 1.074.61.853 1.562 1.4 2.61 1.501a3.749 3.749 0 0 0 2.25-.407 4.293 4.293 0 0 0 2.002-3.232l.6-5.16-13.713-1.56Zm11.842 1.342-.14 1.263c-.11.924-.19 1.988-1.15 2.466a2.071 2.071 0 0 1-1.25.208 2.004 2.004 0 0 1-1.28-.616 3.095 3.095 0 0 1-.5-2.695l-1.4-1.272ZM711.164 385.773l.905-2.402 12.926 4.812-.905 2.402ZM720.143 394.784l-10.64-5.18-1.121 2.287 10.642 5.18-1.85 3.758 1.76.845 4.82-9.803-1.75-.855-1.86 3.768ZM704.081 399.129l-1.5 2.118 4.27 2.983 4.151 8.968 1.51-2.138-3.04-6.482 7.162.656 1.63-2.297-9.912-.825-4.27-2.983ZM617.016 423.15l-3.08-1.64.64-1.193-2.711-1.442-.64 1.193-3.09-1.66-1.161 2.147 1 .517a3.58 3.58 0 0 0-1.44 1.412c-1 1.879-.06 4.355 2.13 5.528 2.19 1.174 4.801.597 5.811-1.282a3.434 3.434 0 0 0 .39-1.989l1 .547Zm-5.001 2.347a1.804 1.804 0 0 1-2.301 1.083 1.787 1.787 0 0 1-1.09-2.288 1.803 1.803 0 0 1 2.55-.973 1.667 1.667 0 0 1 .84 2.148ZM661.263 436.642l.75 2.476 9.562-2.873 1.01 3.34 2.8-.845-1.769-5.806-12.353 3.708ZM673.556 425.954l-1.89.567-.67-2.207-2.79.845 2.37 7.815 2.8-.845-.95-3.132 1.88-.567-.75-2.476ZM689.249 427.058l2.51-1.482-5.45-9.097-11.243 6.661 1.32 2.218 8.741-5.18 4.122 6.88Z"/><path d="m692.109 426.153-2.51 1.481-1.311.776-3.07-5.13-2.48 1.461 3.08 5.141-1.21.715-3.081-5.14-2.49 1.482 3.07 5.13-2.22 1.322 1.33 2.217 13.222-7.834-1.33-2.218-1 .597ZM664.454 435.161c2.38-.716 3.83-2.893 3.231-4.862a3.178 3.178 0 0 0-1-1.541l1-.318-.66-2.307-3.35.994-.391-1.292-3 .885.4 1.292-3.371.995.71 2.326 1-.298a3.284 3.284 0 0 0 0 1.859c.63 1.969 3.05 2.983 5.43 2.267Zm-2.76-2.983c-.22-.696.37-1.491 1.31-1.77a1.584 1.584 0 0 1 2.08.756c.22.696-.37 1.492-1.31 1.78a1.604 1.604 0 0 1-2.08-.786ZM652.201 433.481h-.68v-4.524h-2.59v9.246h-5.24v-5.955h4.33v-2.585h-7.261v11.135h8.171V444h2.59v-7.904h.68v7.894h2.661v-15.033h-2.66v4.524ZM630.758 435.131l1.87-1.72a5.785 5.785 0 0 1-2.85-5.965l.1-.448-3-.636-.1.447a5.812 5.812 0 0 1-5.071 4.276l1 2.336a9.498 9.498 0 0 0 4.67-2.148 9.329 9.329 0 0 0 3.381 3.858Z"/><path d="m634.879 429.365-2.62-.567-.52 2.406 2.61.567-.89 4.096 2.86.616 1.67-7.745-2.85-.606-.26 1.233ZM621.106 424.691l-2.57-1.372-4.97 9.197 2.58 1.372 2-3.698 1.73.924 1.24-2.296-1.73-.925 1.72-3.202ZM607.624 428.33l-2.57-1.382-2.62 4.852 11.621 6.205 1.23-2.267-9.051-4.832 1.39-2.576ZM630.318 435.32c-3.3-.706-6.341.408-6.791 2.486-.45 2.078 1.86 4.335 5.15 5.041 3.291.706 6.342-.398 6.792-2.476.45-2.078-1.86-4.295-5.151-5.051Zm2.08 4.385c-.19.855-1.64 1.272-3.24.934-1.6-.338-2.74-1.322-2.55-2.177.19-.855 1.63-1.273 3.23-.925 1.6.348 2.74 1.313 2.56 2.168Z"/></g></g></g></g></svg>