<svg xmlns="http://www.w3.org/2000/svg" id="_레이어_1" version="1.1" viewBox="0 0 959.2758596 959.2792438"><defs><style>.st0{fill:#fff}</style></defs><path d="M441.563 459.137V439.1H386.79v7.346h42.883v12.69zM509.024 459.134v-54.166h-11.019v18.7h-5.143v-18.7h-11.02v43.814H462.07v-36.866h15.028v-6.948h-26.183v50.826h30.928v3.34h11.019v-28.118h5.143v28.118zM402.488 435.157c11.022 0 19.706-6.345 19.706-15.696 0-9.354-8.684-15.695-19.706-15.695-11.086 0-19.702 6.341-19.702 15.695 0 9.35 8.616 15.696 19.702 15.696m0-24.846c4.41 0 7.95 3.607 7.95 9.083s-3.34 9.218-7.95 9.218c-4.605 0-7.945-3.743-7.945-9.218s3.468-9.083 7.945-9.083M573.148 459.137v-18.7h-54.772v7.343h43.015v11.357zM535.61 437.027c10.954 0 18.369-6.213 18.369-14.362 0-3.47-1.405-6.61-3.81-9.016h6.68v-6.68h-15.36v-4.677h-11.757v4.677h-15.364v6.68h6.68c-2.406 2.406-3.807 5.547-3.807 9.016 0 8.149 7.415 14.362 18.369 14.362m0-23.577c4.007 0 7.215 3.34 7.215 8.484 0 5.076-3.005 8.548-7.215 8.548s-7.215-3.472-7.215-8.548c0-5.144 3.14-8.484 7.215-8.484M639.275 404.964h-55.443v7.347h43.953v39.476h-7.746V422h-10.687v29.787h-6.683V422h-10.684v29.787h-10.153v7.347h62.786v-7.347h-5.343zM573.148 429.346h7.343v-7.347h-7.343v-17.032H561.39v32.795h11.757zM429.673 404.966h11.889v31.462h-11.889zM317.995 447.648c0 7.546 10.82 12.825 28.055 12.825 17.228 0 28.054-5.279 28.054-12.825 0-3.54-2.41-6.346-6.816-8.285h10.156v-7.012H352.06v-2.74c12.822-.931 20.037-4.874 20.037-9.95 0-2.474-1.6-4.474-4.677-6.01h9.35v-6.68h-24.71v-4.677h-12.024v4.676h-24.711v6.68h9.35c-3.076 1.537-4.676 3.537-4.676 6.01 0 5.077 7.218 9.02 20.037 9.95v2.741h-25.378v7.012h10.149c-4.406 1.94-6.812 4.745-6.812 8.285m16.497-25.716c-1.736-.8-2.47-1.936-2.47-3.209 0-1.269.734-2.402 2.47-3.2 2.538-1.202 6.948-1.872 11.558-1.872 4.605 0 9.015.67 11.556 1.871 1.736.799 2.47 1.932 2.47 3.201 0 1.273-.734 2.41-2.47 3.209-2.541 1.269-6.88 1.871-11.556 1.871-4.677 0-9.02-.602-11.558-1.871m-.064 19.57c2.802-1.205 7.077-1.868 11.622-1.868 4.544 0 8.815.663 11.62 1.868 2.938 1.272 4.41 3.07 4.41 5.208s-1.405 3.943-4.41 5.212c-2.805 1.204-7.076 1.871-11.62 1.871-4.545 0-8.82-.667-11.622-1.871-3.008-1.27-4.41-3.073-4.41-5.212s1.47-3.936 4.41-5.208M493.511 498.125l-13.882 11.644-13.786-11.587-.068-.057H361.713l-44.04 48.149-.065.071v146.228h118.116l14.6 12.206.067.058h58.494l14.667-12.264h117.155V546.345l-44.119-48.22zm-11.702 15.482 13.3-11.124h97.256v138.871h-98.854l-11.702 9.763zm-115.872-11.124h98.24l13.273 11.124v137.51l-11.61-9.709-.065-.054h-99.838zm-1.239 143.233h99.48l15.3 12.772.151.129 15.48-12.9h98.511l6.894 7.343h-96.008l-14.666 12.26h-20.407l-14.599-12.203-.068-.057h-96.965zm-9.746-133.764 6.626-7.252v137.97l-6.626 7.063zm-10.995 12.027 6.633-7.259v137.66l-6.633 7.069zm-10.992 12.028 6.633-7.26v137.348l-6.633 7.073zm-10.995 12.03 6.637-7.259v137.037l-6.637 7.072zm307.742-7.245 6.633 7.245v136.85l-6.633-7.072zm3.78 147.422H521.965l-14.667 12.264h-55.324l-14.598-12.21-.068-.054H324.823l6.904-7.36h109.818l14.599 12.21.067.054h46.854l14.667-12.264h108.857zm-14.775-159.433 6.636 7.246v137.141l-6.636-7.073zm3.783 147.714H516.144l-14.667 12.26h-43.682l-14.599-12.203-.067-.057H335.815l6.907-7.357h104.643l14.6 12.203.067.057h35.212l14.667-12.26h103.682zM607.725 516.77l6.633 7.246v137.432l-6.633-7.07zm3.78 148.005H510.323L495.66 677.04h-32.044l-14.599-12.207-.068-.057H346.813l6.9-7.354h99.473l14.6 12.2.067.057h23.57l14.667-12.257h98.512zM596.723 504.75l6.644 7.259v137.723l-6.644-7.08zM419.56 343.226h-37.547V275.64h150.194v15.018h7.51V268.13H374.503v82.606h45.056z" class="st0"/><path d="M419.558 290.657h112.647v52.565H419.558z" class="st0"/><path d="M539.716 350.737H419.56v22.528h165.212v-82.606h-45.056z" class="st0"/><path d="M769.498 417.576c-1.815-5.574-5.172-10.115-8.512-14.176-17.168-23.37-28.944-41.07-35.002-52.606-8.453-16.105-10.93-27.618-16.359-52.833l-.132-.633c-1.478-6.853-3.154-14.623-5.218-23.767-3.743-16.538-12.84-28.453-26.27-34.44-32.43-17.086-63.341-37.844-79.957-50.43-14.694-11.134-39.324-38.16-39.56-38.42l-.414-.311c-.55-.264-5.671-2.565-15.644-1.94-9.977.63-20.18 8.292-24.816 18.63-4.623 10.315.589 21.79 6.203 25.158.437.264 1.002.602 1.73 1.07-6.39 3.143-25.35 11.509-45.91 11.509-20.575 0-39.523-8.363-45.908-11.506a77 77 0 0 1 1.729-1.073c5.614-3.37 10.822-14.846 6.203-25.158-4.64-10.338-14.843-18-24.813-18.63-9.905-.642-15.09 1.672-15.725 1.987l-.264.2-.071.064c-.234.26-25.02 27.401-39.564 38.42-16.596 12.575-47.483 33.32-79.875 50.393-13.493 6.02-22.603 17.943-26.35 34.477-2.125 9.401-3.885 17.584-5.299 24.156l-.05.237c-5.429 25.225-7.906 36.738-16.36 52.84-8.619 16.423-27.272 42.376-34.85 52.717-4.003 4.085-6.998 8.948-8.663 14.065-7.265 22.338 9.669 37.97 16.657 41.137 7.784 3.53 27.621 6.136 35.885-9.11 1.787-3.29 3.354-7.986 3.49-8.606 3.194-14.792 13.797-27.82 16.578-31.042 15.147 11.266 25.34 38.667 27.297 73.449 1.749 31.073-9.348 52.02-19.128 64.227-2.737-2.951-8.724-10.308-12.991-22.024-1.665-5.51-6.816-11.042-12.826-13.77-4.45-2.017-11.648-3.55-20.657.589-6.673 3.076-11.567 8.454-14.145 15.543-2.948 8.126-2.474 17.689 1.265 25.584a29 29 0 0 0 2.285 3.946l-.122.075.744 1.12c.156.237 15.862 24.139 23.82 47.624 2.868 8.46 5.453 18.122 8.211 28.434 5.3 19.793 12.366 44.521 20.06 60.166 20.607 41.889 49.23 69.52 92.814 89.601 53.405 24.603 106.745 24.603 124.275 24.603 42.173 0 81.527-8.278 116.969-24.603 43.245-19.922 73.025-48.802 93.726-90.88 7.48-15.198 19.195-59.05 19.195-59.05 2.724-10.19 5.3-19.81 8.166-28.27 8.264-24.39 23.455-47.338 23.604-47.554 1.418-2.048 2.41-3.703 3.127-5.215 3.736-7.895 4.21-17.455 1.262-25.58-2.582-7.094-7.472-12.468-14.149-15.544-8.992-4.146-16.196-2.61-20.656-.589-5.767 2.62-10.41 7.75-12.109 13.364-4.193 11.54-10.714 19.3-13.695 22.44-6.768-8.484-21.459-31.005-20.177-65.381 1.29-34.62 11.087-59.608 28.342-72.309 3.52 4.01 11.591 14.43 16.867 30.766.49 2.896 1.564 5.884 3.191 8.883 8.257 15.235 28.102 12.636 35.889 9.113 6.988-3.167 23.922-18.799 16.657-41.137M522.599 168.89c3.841-8.566 12.138-14.904 20.176-15.415a47 47 0 0 1 2.975-.098c5.242 0 8.45.957 9.536 1.347 2.917 3.19 25.435 27.695 39.462 38.321 13.665 10.352 37.611 26.698 64.332 41.93-13.283-.254-24.392 4.771-29.648 10.084-12.802 12.961-13.486 25.747-12.4 34.816-11.461-16.7-28.365-39.327-45.844-55.618-31.337-29.208-41.29-35.174-44.559-37.134-3.827-2.298-7.384-10.744-4.03-18.233m127.28 120.332c-.04-.068-3.97-6.853-.887-13.154 3.239-6.623 9.689-8.332 14.66-7.093 5.679 1.425 16.62 9.357 14.17 24.805-2.495 15.723-19.303 17.79-28.837 16.539-6.392-.836-15.81-4.934-21.302-13.713-.606-1.073-1.672-3.13-1.763-3.306a27.6 27.6 0 0 1-1.486-4.152c-1.55-5.835-3.1-13.5-1.533-21.496 3.262 2.666 13.939 11.864 22.41 24.49l.263.39 4.542-2.91zm-5.794-15.557a18 18 0 0 0-1.678 5.5c-7.157-8.515-14.112-14.326-17.852-17.185 1.835-4.687 4.705-8.968 8.762-13.076a19 19 0 0 1 1.875-1.645c6.67 6.975 14.741 12.71 20.694 16.477-5.138 1.327-9.3 4.816-11.8 9.93m-279.559-80.62c14.038-10.636 36.55-35.134 39.463-38.321 1.53-.559 5.618-1.692 12.511-1.25 8.037.512 16.332 6.85 20.176 15.412 3.354 7.493-.203 15.94-4.027 18.237-3.272 1.96-13.232 7.93-44.562 37.134-17.624 16.427-34.498 39.283-45.916 56.187 1.195-9.263.606-22.288-12.328-35.385-4.602-4.656-14.863-10.095-28.633-10.095-.335 0-.67 0-1.005.01 26.734-15.248 50.67-31.587 64.321-41.929m-54.244 83.023c3.087 6.315-.727 12.883-.893 13.16l-.237.4 4.548 2.904.265-.39c8.48-12.632 19.153-21.824 22.412-24.49 1.57 8.003.017 15.665-1.536 21.496-3.398 12.781-15.106 19.932-24.551 21.17-9.534 1.26-26.342-.805-28.837-16.538-2.44-15.397 8.417-23.33 14.112-24.788l.058-.017c.991-.247 2.03-.372 3.086-.372 2.382 0 8.277.727 11.573 7.465m-6.883-12.335c5.953-3.77 14.024-9.506 20.68-16.474.695.528 1.32 1.08 1.876 1.645 4.06 4.111 6.933 8.392 8.768 13.076-3.134 2.403-10.454 8.4-17.851 17.188a18 18 0 0 0-1.682-5.503c-2.498-5.113-6.657-8.606-11.79-9.932m-63.286 175.98-.152.83c-.444 2.108-1.266 4.277-2.444 6.453-6.44 11.882-22.49 9.601-28.825 6.735-5.801-2.626-19.828-15.672-13.717-34.467 1.097-3.36 2.83-6.535 5.151-9.435.846-1.043 1.963-2.329 2.301-2.603l.092-.081c3.489-3.5 7.827-6.288 12.548-8.058 4.237-1.593 8.741-2.402 13.39-2.402 1.54 0 3.118.088 4.692.264-1.838 5.127-7.74 18.683-16.231 28.497l-.328.383 4.369 3.411.294-.382c.044-.058 4.667-5.913 10.522-3.889 3.495 1.191 6.375 3.93 7.705 7.327.87 2.22 1.083 4.717.633 7.418m3.956-10.561c-2.075-4.338-5.939-7.794-10.531-9.357a13.7 13.7 0 0 0-4.397-.738q-.238-.002-.473.007c5.404-8.386 8.504-16.647 9.949-21.144 4.998 1.195 9.909 3.215 14.596 6.01 1.556.927 3.076 1.875 4.626 2.887-3.195 3.699-8.846 11.147-13.77 22.335m13.221 108.911c4.025 7.33 7.886 11.834 9.662 13.723-5.34 5.705-11.184 9.99-16.484 12.084-.93.37-1.915.69-2.995.982-1.533-6.22-4.724-12.102-7.357-16.22 2.237.179 4.38-.065 6.663-.755 4.596-1.38 8.623-5.17 10.511-9.814m-41.147 13.15c-3.13-6.605-3.526-14.595-1.066-21.377 2.064-5.692 5.97-9.996 11.293-12.443 3.032-1.401 6.05-2.108 8.965-2.108 2.5 0 4.907.514 7.147 1.53 4.616 2.09 8.673 6.378 9.871 10.426 2.447 8.247-2.72 13.976-7.167 15.41-5.405 1.737-9.303.116-13.46-5.6l-.28-.389-4.514 3.286.338.396c.484.565 11.72 13.756 14.802 25.459-10.846.812-21.445-5.13-25.929-14.59m491.472-24.304c1.252-4.23 4.765-8.095 9.171-10.095 3.422-1.546 8.992-2.707 16.119.579 5.323 2.447 9.229 6.751 11.293 12.443 2.463 6.779 2.064 14.772-1.066 21.378-4.478 9.458-15.1 15.39-25.926 14.589 3.11-11.774 14.677-25.327 14.795-25.462l.342-.396-4.518-3.283-.28.39c-4.576 6.284-8.004 6.605-13.514 4.954-4.849-1.459-8.744-7.246-6.416-15.097m-4.968 10.856c1.767 4.637 5.371 8.14 9.815 9.476 2.703.812 4.896 1.208 6.802 1.218-2.664 4.149-5.916 10.108-7.463 16.393a28 28 0 0 1-2.998-.982c-5.286-2.091-11.123-6.369-16.47-12.074 2.328-2.383 6.43-7.083 10.314-14.03m-39.556-55.696c-1.432 47.432 24.694 79.361 43.705 86.884 8.644 3.418 18.105 3.161 26.217-.66-5.337 9.408-12.318 22.921-16.842 36.268-2.921 8.623-5.52 18.318-8.268 28.582l-.775 2.897c-4.806 18.014-10.792 40.43-18.047 55.182-20.122 40.897-49.07 68.964-91.111 88.332-34.718 15.993-73.303 24.101-114.681 24.101-17.235 0-69.676 0-121.988-24.101-42.362-19.52-70.18-46.366-90.193-87.053-7.5-15.239-14.47-39.662-19.706-59.24l-.05-.192c-2.742-10.237-5.33-19.906-8.244-28.508-4.525-13.347-11.506-26.856-16.846-36.264 8.115 3.824 17.577 4.078 26.216.656 17.652-6.985 44.844-36.443 42.668-85.763-1.868-42.468-14.305-69.148-39.138-83.957-14.162-8.45-29.387-10.318-42.863-5.266-.518.193-1.032.4-1.553.626 8.825-12.453 20.216-29.215 26.538-41.259 8.802-16.761 11.326-28.504 16.863-54.234l.037-.18c1.5-6.953 3.195-14.835 5.303-24.152 3.042-13.455 10.081-23.553 20.37-29.232l.023.048 2.917-1.533a40 40 0 0 1 5.293-1.926c9.82-2.795 21.637-1.905 30.325 2.244-11.703 11.787-28.109 20.149-28.81 20.504-8.555 4.329-16.829 14.423-14.399 29.76 3.147 19.862 23.449 22.613 34.952 21.11 7.583-.998 18.764-5.888 25.306-16.382l.003-.004c.271-.446 27.27-44.782 55.496-71.096 15.892-14.813 28.285-25.527 36.837-31.855 3.526 1.952 25.377 13.448 50.991 13.448 25.574 0 47.46-11.492 50.992-13.445 8.565 6.332 20.955 17.046 36.836 31.852 21.852 20.369 42.84 51.178 53.402 67.726 7.248 11.668 16.47 18.315 27.408 19.756 11.496 1.506 31.8-1.248 34.944-21.11 2.437-15.343-5.902-25.32-14.511-29.536-.166-.088-16.826-8.758-28.694-20.725 8.687-4.159 20.505-5.045 30.325-2.247 1.868.535 4.474 1.547 5.286 1.92.8.361 1.198.568 1.658.801l.12.064c10.926 5.55 18.375 15.875 21.539 29.858a2132 2132 0 0 1 5.343 24.36c5.537 25.715 8.062 37.451 16.86 54.206 6.315 12.024 17.71 28.796 26.538 41.26a30 30 0 0 0-1.553-.627c-13.472-5.056-28.694-3.184-42.867 5.266-26.176 15.61-38.944 41.936-40.172 82.836m52.112-52.92c-4.92-11.178-10.573-18.63-13.77-22.332 1.499-.978 3.055-1.95 4.63-2.887 4.682-2.795 9.593-4.815 14.598-6.01 1.442 4.494 4.535 12.751 9.953 21.147a13.7 13.7 0 0 0-4.877.728c-4.592 1.563-8.456 5.019-10.534 9.354m35.38 24.582c-6.328 2.863-22.382 5.14-28.829-6.731-1.09-2.024-2.03-4.582-2.511-6.826-.477-2.89-.277-5.763.552-7.878 1.33-3.401 4.21-6.139 7.705-7.327.91-.311 1.831-.47 2.735-.47 4.314 0 7.658 4.183 7.797 4.362l.294.376 4.359-3.408-.331-.383c-8.505-9.834-14.397-23.377-16.228-28.497 6.346-.708 12.423.01 18.082 2.138 4.72 1.77 9.056 4.549 12.528 8.031.01.01 1.252 1.333 2.416 2.71 2.325 2.904 4.057 6.079 5.147 9.436 6.112 18.792-7.912 31.84-13.715 34.467" class="st0"/><path d="M536.473 564.884c6.006-.578 14.067-1.421 21.867-2.267.264 1.53.474 2.95.58 4.27l6.22-1.844c-.738-6.534-3.48-16.18-7.064-23.712l-5.688 1.79c1.841 4.058 3.475 8.958 4.687 13.543-3.794.315-7.638.684-11.222.948 2.95-10.907 5.956-25.503 7.692-37.94l-7.272-.947c-1.158 12.328-3.844 28.034-6.745 39.415l-3.898.264zM518.714 531.37c-.579 5.848-1.685 13.12-2.687 17.865l6.27 1.053.42-2.268h7.537c-.633 7.696-1.475 11.07-2.477 12.068-.633.528-1.107.633-2 .633-1.161 0-3.638-.051-6.115-.264 1.107 1.74 1.848 4.267 1.953 6.22 2.737.05 5.424.105 7.005-.105 1.898-.264 3.164-.792 4.426-2.163 1.794-2.003 2.74-7.272 3.692-19.495.105-.843.156-2.532.156-2.532h-13.28c.265-1.685.528-3.425.738-5.164h12.386v-17.702h-19.5v5.847h13.439v6.007zM529.463 592.25h21.503v-4.74c2.474 2.846 5.425 5.428 8.535 7.377 1.106-1.475 3.424-3.743 4.9-4.795-5.323-2.687-10.328-7.59-12.856-12.437H532.89v5.797h14.91a44 44 0 0 0 2.796 3.635h-21.134zM519.663 613.013a42 42 0 0 0 4.636-3.32v8.325h-7.533v5.642h46.633v-5.642h-7.009v-8.534c1.32 1.001 2.741 1.895 4.163 2.687 1.055-1.53 3.32-3.848 4.799-4.955-5.642-2.372-10.806-6.85-13.283-11.54h-20.234v3.794l-5.164-1.631c-2.423 4.267-6.9 8.166-11.645 10.484 1.37 1.106 3.635 3.533 4.637 4.69m13.752 5.005h-3.583v-6.325h3.583zm8.59 0h-3.686v-6.325h3.686zm8.538 0h-3.69v-6.325h3.69zm-18.708-16.809v.315h16.599a40.3 40.3 0 0 0 4.745 5.323h-25.82c1.684-1.74 3.21-3.634 4.476-5.638" class="st0"/><path d="M520.717 595.413c4.532-3.215 9.273-8.484 12.064-13.912l-6.321-1.844c-2.264 4.376-6.325 8.484-10.643 11.12 1.422 1.053 3.845 3.425 4.9 4.636M422.848 521.727c.055-1.107.105-2.16.16-3.002h-7.168c-.369 6.955.37 30.877-20.656 42.525 2.107 1.475 4.162 3.37 5.269 5.005 11.12-6.799 16.65-16.968 19.499-26.454 2.95 9.696 8.85 20.552 20.758 26.454 1.002-1.685 2.9-3.848 4.85-5.323-19.655-9.222-22.289-31.933-22.712-39.205M421.953 597.1h14.331v20.602c0 .843-.314 1.16-1.262 1.16-.687.052-2.636.052-4.69 0v-18.706H410.04v22.815h5.692v-2.687h13.07c.632 1.635 1.21 3.584 1.37 4.9 4.53 0 7.587-.155 9.641-1.211 2.108-1.002 2.795-2.846 2.795-6.217v-39.783h-20.656zm2.477 18.602h-8.694v-3.269h8.694zm0-7.75h-8.694v-3.16h8.694zm3.479-25.448h8.379v2.792h-8.38zm0 7.008h8.379v3.107h-8.38z" class="st0"/><path d="M418.317 577.971h-20.183v47.216h6.22v-28.194h13.963zm-5.851 14.545h-8.116v-3.001h8.116zm0-7.221h-8.116v-2.792h8.116z" class="st0"/><path d="M839.485 478.953c0-198.418-161.422-359.844-359.84-359.844-198.424 0-359.854 161.426-359.854 359.844 0 198.424 161.43 359.857 359.854 359.857 198.418 0 359.84-161.433 359.84-359.857m-359.84 354.219c-195.311 0-354.206-158.902-354.206-354.22 0-195.3 158.895-354.191 354.206-354.191 195.298 0 354.182 158.89 354.182 354.192 0 195.317-158.884 354.219-354.182 354.219" class="st0"/><path d="M479.645 0C215.165 0 0 215.162 0 479.635 0 744.11 215.166 959.279 479.645 959.279c264.468 0 479.63-215.17 479.63-479.644C959.276 215.162 744.114 0 479.646 0m0 953.587C218.293 953.587 5.67 740.973 5.67 479.635c0-261.346 212.622-473.967 473.974-473.967 261.345 0 473.962 212.621 473.962 473.967 0 261.338-212.617 473.952-473.962 473.952" class="st0"/><path d="m117.308 375.124-31.178-10.64 11.249-32.964 31.181 10.643 4.105-12.04-71.94-24.553-4.108 12.038 29.902 10.206-11.252 32.961-29.903-10.203-4.04 11.841 71.943 24.552zM102.875 303.005c6.71 3.899 14.352 6.24 21.923 6.24 11.286 0 22.402-5.214 29.976-18.25 5.54-9.53 6.819-19.526 3.699-28.904-2.924-8.788-9.743-16.653-19.195-22.145-10.484-6.092-21.043-7.875-30.542-5.161-8.74 2.5-16.118 8.565-21.337 17.543-10.66 18.349-4.297 39.188 15.476 50.677m-5.469-45.462c3.577-6.156 8.887-9.943 15.361-10.948a23 23 0 0 1 3.543-.267c5.066 0 10.504 1.567 15.652 4.558 11.956 6.948 21.654 19.669 13.015 34.539-3.77 6.49-9.14 10.183-15.967 10.971-6.108.714-13.238-1.09-20.07-5.06-6.962-4.043-11.726-9.346-13.79-15.336-2.062-5.987-1.28-12.372 2.256-18.457M186.226 242.874l-40.234-35.49 63.784 8.79 7.77-8.806-57.013-50.288-8.138 9.228 40.321 35.568-64.014-8.711-7.901 8.961 57.011 50.288zM224.017 187.453q3.443.79 6.88.789c7.14 0 14.187-2.548 20.684-7.533 7.36-5.648 12.03-13.026 13.008-20.322l4.742 5.53 8.47-6.498-24.768-32.287-27.354 20.984 6.856 8.945 18.268-14.014c5.786 10.376 3.908 20.927-5.076 27.82-13.358 10.248-26.962 2.316-34.56-7.586-4.957-6.46-7.68-12.989-7.888-18.88-.226-6.684 2.755-12.45 8.867-17.14 8.646-6.63 17.912-6.481 25.428.409l.947.87 9.676-8.43-1.15-1.09c-12.092-11.462-27.53-12.004-41.29-1.452-17.997 13.804-19.997 34.345-5.219 53.608 6.633 8.646 14.752 14.274 23.48 16.277M254.82 86.104l11.016-6.15 37.056 66.377-11.015 6.15zM328.556 133.513l-9.215-23.435 5.93-13.13 38.027 22.906 15.573-6.122-48.413-28.257 18.386-41.635-15.868 6.24-19.385 45.365-12.852-32.69-11.649 4.578 27.821 70.758zM412.441 97.05c4.731 5.601 11.793 8.427 21.046 8.427q2.746 0 5.756-.335c12.813-1.421 21.388-7.844 24.146-18.074 1.37-4.955.839-11.229.23-16.718l-4.964-44.775-12.745 1.411 4.815 43.439c1.185 10.683 1.084 21.259-13.935 22.92-14.823 1.655-17.114-7.59-18.372-18.92l-4.86-43.852-12.748 1.415 4.694 42.308c.822 7.442 1.85 16.697 6.937 22.755M496.91 48.38l31.201 56.332 11.71.938 6.077-75.784-12.267-.985-4.302 53.601-31.4-56.464-11.91-.958-6.08 75.788 12.68 1.018zM555.274 109.661l16.573-74.195 12.315 2.75-16.574 74.196zM613.09 126.551l52.867-61.645-12.737-4.646-38.353 46.345-.145-60.39-12.928-4.713.955 81.28zM691.386 166.281l5.76-10.047-36.23-20.765 10.676-18.63 33.175 19.012 5.76-10.047-33.175-19.016 9.645-16.832 35.15 20.145 5.967-10.406-46.098-26.42-37.808 65.967zM710.343 181.188l19.625-23.157 10.602 8.981c1.618 1.37 5.912 5.009 7.12 7.492 2.207 4.711-.636 8.955-3.648 13.449-.48.72-.958 1.431-1.4 2.135-2.83 4.444-4.305 7.334-5.57 12.721l-.2.856 12.514 10.606-.312-3.489c-.45-5.086 2.813-10.416 5.97-15.57 3.888-6.349 7.909-12.914 5.009-19.283 6.7 1.702 13.777-.748 18.967-6.873 3.588-4.237 5.466-8.484 5.73-12.971.64-9.56-5.147-15.855-11.493-21.236l-23.31-19.75-49.147 57.998zm41.73-49.242 10.443 8.85c7.486 6.341 13.13 12.243 6.372 20.216-5.286 6.244-11.11 6.085-18.873-.497l-12.893-10.928zM795.4 237.506c-2.639 2.176-5.63 2.775-8.893 1.784-2.88-.877-5.783-2.958-8.173-5.858-7.228-8.765-7.035-16.092.617-23.76l1.052-1.056-9.53-8.846-.978.961c-11.722 11.482-11.864 25.466-.399 39.374 4.677 5.679 10.41 9.679 16.136 11.27 1.905.527 3.8.791 5.66.791 4.742 0 9.284-1.709 13.358-5.066 13.117-10.812 7.527-23.915 2.566-35.54l-1.138-2.683c-4.125-9.794-4.856-11.987-.758-15.368 2.45-2.013 5.127-2.589 7.956-1.709 2.488.772 5.083 2.687 7.31 5.388 5.94 7.205 5.837 13.479-.311 19.753l-1.022 1.039 9.032 8.646.995-.903c3.239-2.944 5.428-6.38 6.897-10.799 2.653-7.905.29-16.183-7.222-25.303-7.415-8.995-20.38-15.946-32.535-5.932-7.986 6.588-9.357 14.592-4.433 25.949l3.756 8.697c2.893 6.623 6.173 14.129.058 19.171M793.948 272.092l64.142-40.815 6.773 10.644-64.142 40.815zM873.288 281.116l-57.737 28.132 5.574 11.435 57.733-28.132 9.53 19.557 10.595-5.164-24.72-50.735-10.593 5.164zM837.407 361.626l3.729 11.942 29.157-9.103 52.038 14.075-4.48-14.349-36.83-9.36 24.954-28.66-4.44-14.217-34.961 40.562zM53.584 487.394c.126 7.75.959 16.498 9.283 22.275 3.862 2.65 8.586 4.044 13.685 4.044.153 0 .305-.004.457-.004 7.02-.115 12.837-2.42 16.827-6.666 4.098-4.363 6.2-10.745 6.074-18.45l-.484-29.666-75.34 1.225.206 12.63 29.045-.474zm34.448-15.648.162 10.156c.186 11.347-.524 18.795-11.598 18.978-2.818.068-6.784-.64-9.353-4.152-2.051-2.877-2.145-8.6-2.18-10.755l-.226-13.851zM70.597 574.54c4.07 5.507 11.029 8.069 18.853 6.624 5.411-.992 9.516-3.07 12.542-6.346 6.493-6.934 6.013-15.394 4.524-23.51l-5.469-29.783-74.116 13.601 2.244 12.22 29.584-5.428 2.484 13.53c.38 2.064 1.385 7.55.755 10.21-1.27 4.984-6.109 6.453-11.235 8.006-.82.25-1.631.498-2.41.752-4.961 1.634-7.912 2.927-12.26 6.26l-.701.535 2.94 16.027 1.974-2.897c2.843-4.176 8.687-6.21 14.341-8.18 6.962-2.426 14.16-4.93 15.95-11.62m21.483-38.737 2.446 13.326c1.817 9.896 2.396 17.615-7.8 19.486-7.946 1.449-12.315-2.308-14.139-12.227l-3.019-16.453zM125.751 615.977c-7.593-19.618-27.665-27.6-48.798-19.415-9.55 3.696-17.205 10.02-21.554 17.808-4.957 8.88-5.407 19.18-1.296 29.787 3.943 10.192 10.887 17.37 20.075 20.764 3.837 1.418 8.013 2.126 12.359 2.126 5.4 0 11.065-1.09 16.663-3.26 21.692-8.399 30.545-27.167 22.551-47.81M64.5 640.021c-6.118-15.81 5.15-26.65 17.736-31.523 4.302-1.665 8.477-2.5 12.372-2.5 2.836 0 5.53.44 8.018 1.33 5.905 2.114 10.358 6.666 12.873 13.167 2.548 6.575 2.186 13.022-1.039 18.646-2.998 5.225-8.396 9.554-15.198 12.19-12.775 4.944-28.613 4.565-34.762-11.31M185.13 720.113l-25.1 18.707-20.606-27.648 25.1-18.704-7.422-9.963-60.407 45.02 7.426 9.959 26.166-19.5 20.605 27.642-26.169 19.506 7.547 10.125 60.406-45.019zM225.9 813.056c15.641-17.212 15.161-37.956-1.221-52.843-15.56-14.142-37.083-12.308-52.326 4.464-6.886 7.58-10.903 16.66-11.31 25.57-.46 10.156 3.747 19.57 12.163 27.218 7.093 6.447 15.212 9.787 23.672 9.787q1.78.001 3.574-.196c9.123-1.005 18.159-5.98 25.448-14m-26.487 1.597c-6.82 1.455-13.114-.413-18.752-5.536-12.544-11.401-7.32-26.136 1.757-36.126 5.36-5.898 11.482-9.414 17.712-10.166q1.247-.148 2.48-.149c5.334 0 10.451 2.102 14.921 6.166 11.703 10.633 8.065 25.158-.727 34.84-5.283 5.807-11.46 9.709-17.391 10.971M306.637 818.726l-47.039 37.154 9.546-59.219-12.616-7.421-38.21 64.941 10.721 6.305.724-1.26c.187-.324 16.038-27.84 24.986-43.228l-9.33 54.129 8.077 4.748 42.708-33.747c-9.053 14.847-25.29 41.876-25.482 42.2l-.749 1.242 10.806 6.36 38.21-64.942zM302.146 899.129l28.515-69.73 11.593 4.74-28.515 69.73zM386.246 903.247l-20.46-59.79-.25-.728-11.466-3.022-19.208 72.846 12.21 3.219 13.543-51.361 20.542 60.352 11.265 2.972 19.212-72.85-11.814-3.114zM462.914 903.069c-.366 4.754-.969 10.159-3.48 14.111-2.74 4.315-7.428 6.152-14.304 5.625-14.762-1.137-15.246-10.545-14.38-21.797l3.358-43.601-12.697-.978-3.235 42.064c-.572 7.398-1.28 16.606 2.558 23.446 4.284 7.587 12.565 11.901 24.609 12.829q1.666.127 3.256.128c11.11 0 19.425-4.65 23.597-13.279 2.254-4.579 2.894-10.785 3.313-16.24l3.425-44.522-12.698-.978zM546.848 854.485l-14.917 58.048-28.271-52.887-14.535 1.732 8.941 74.806 12.348-1.475-.185-1.438c-.048-.376-4.106-31.865-6.309-49.524l25.361 48.708 9.303-1.113 13.536-52.711c1.79 17.292 5.246 48.623 5.286 48.998l.16 1.442 12.45-1.482-8.941-74.806zM652.326 857.872c3.922-4.75 4.633-11.066 1.875-17.878-2.989-7.374-8.007-11.347-14.921-11.814-5.746-.379-11.723 1.669-16.82 3.733l-25.4 10.284 28.277 69.842 23.598-9.557c8.541-3.459 28.545-11.557 20.183-32.207-3.198-7.902-9.198-12.267-16.792-12.403m-39.36-10.037 13.505-5.472c2.988-1.212 6.83-2.555 10.03-2.21 3.108.335 5.246 2.186 6.722 5.834 1.336 3.303.927 6.329-1.212 8.995-1.74 2.166-8.294 4.822-10.447 5.692l-11.51 4.664zm30.643 44.508-10.843 4.393-8.474-20.931 13.411-5.432c7.415-3.001 15.648-5.394 19.557 4.261s-4.999 14.203-13.651 17.71M699.201 865.567l-11.032-18.156 32.362-19.671-5.973-9.825-32.362 19.672-9.967-16.4 34.292-20.842-6.186-10.176-44.995 27.347 39.13 64.383 46.048-27.99-5.973-9.828zM742.429 754.448l35.028 40.085-61.73-16.751-8.93 7.8 49.578 56.732 9.509-8.308-34.955-40 61.5 16.801 8.775-7.668-49.578-56.731zM816.486 768.626l-16.481-13.405 23.895-29.38-8.92-7.256-23.896 29.384-14.89-12.108 25.32-31.134-9.238-7.516-33.222 40.85 58.45 47.536 33.997-41.807-8.92-7.256zM857.015 670.82l-9.84-5.749-16.884 28.887-16.565-9.682 18.487-31.638-10.196-5.953-24.86 42.539 65.05 38.013 6.372-10.903-28.443-16.626zM825.515 636.978l5.009-11.482 69.066 30.129-5.009 11.482zM902.774 567.442l-1.367-.684-4.86 11.377 1.046.654c8.866 5.553 12.532 14.41 9.804 23.692-4.48 15.249-19.354 16.775-31.78 13.123-6.237-1.834-26.146-9.32-20.45-28.69 2.764-9.405 10.04-14.153 20.41-13.398l1.271.095 2.396-12.352-1.489-.22c-16.186-2.369-28.778 6.156-33.682 22.826-3.15 10.72-1.932 20.555 3.523 28.443 4.975 7.192 13.347 12.684 24.213 15.879 5.225 1.536 10.153 2.287 14.725 2.287 15.458 0 26.83-8.595 31.516-24.538 4.873-16.575-.981-31.327-15.276-38.494M853.762 546.073l1.968-12.372 74.415 11.837-1.968 12.373zM896.425 454.343c-22.485 0-37.27 13.814-37.801 35.507-.264 10.727 3.398 19.918 10.589 26.572 6.744 6.24 16.338 9.82 27.012 10.08q.605.017 1.205.018c18.761 0 37.563-10.765 38.162-35.192.271-10.92-3.387-20.216-10.568-26.876-6.728-6.244-16.4-9.824-27.232-10.092q-.689-.016-1.367-.017m27.98 36.813c-.183 7.431-3.087 13.191-8.637 17.13-4.965 3.523-11.993 5.35-19.838 5.168-7.966-.197-14.63-2.528-19.272-6.745-4.64-4.216-7.005-10.128-6.833-17.096.173-7.046 2.978-12.863 8.115-16.82 4.573-3.516 10.857-5.428 17.78-5.428q.466 0 .931.01c13.69.336 28.17 6.759 27.753 23.78M421.4 730.646c-.937 4.812-4.19 7.15-9.946 7.15h-.48v4.931h9.15v28.258h6.427v-40.728h-5.077zM463.335 732.733c-2.65-2.247-5.726-3.34-9.405-3.34-8.315 0-14.122 5.76-14.122 14.007 0 8.207 5.33 13.72 13.26 13.72 4.098 0 7.573-1.57 9.945-4.457-.247 4.104-1.651 13.164-9.313 13.164-3.956 0-6.443-2.318-6.833-6.356l-.044-.47-6.365.474.044.487c.66 7.012 5.408 11.37 12.393 11.37 6.088 0 16.308-2.791 16.308-21.488 0-8.095-1.919-13.693-5.868-17.11m-9.577 18.647c-4.39 0-7.577-3.283-7.577-7.807 0-5.164 2.97-8.498 7.577-8.498 4.623 0 7.98 3.55 7.98 8.44 0 4.633-3.283 7.865-7.98 7.865M501.144 730.2h-4.981l-18.772 25.473v6.162h17.442v9.15h6.31v-9.15h5.984v-5.62h-5.983zm-6.305 26.014H484.03l11.103-15.892c-.104 4.45-.256 13.703-.294 15.892M531.112 743.61c-4.139 0-7.76 1.655-10.014 4.507.657-8.812 3.828-13.276 9.438-13.276 3.838 0 6.559 2.552 6.775 6.342l.028.48 6.22-.405-.058-.505c-.832-7.147-5.638-11.418-12.85-11.418-3.702 0-15.79 1.533-15.79 21.26 0 13.374 5.445 20.737 15.33 20.737 8.414 0 14.062-5.58 14.062-13.888 0-8.017-5.527-13.834-13.14-13.834m-.806 22.101c-4.7 0-7.98-3.448-7.98-8.382 0-4.592 3.381-7.926 8.038-7.926 4.748 0 7.58 3.05 7.58 8.156 0 4.799-3.14 8.152-7.638 8.152M53.718 418.245c0 6.359 5.154 11.513 11.513 11.513 6.355 0 11.509-5.154 11.509-11.513s-5.154-11.513-11.51-11.513c-6.358 0-11.512 5.154-11.512 11.513M901.72 418.245c0-6.359-5.154-11.513-11.51-11.513-6.359 0-11.513 5.154-11.513 11.513s5.154 11.513 11.513 11.513c6.356 0 11.51-5.154 11.51-11.513" class="st0"/></svg>